G04*
G04 #@! TF.GenerationSoftware,Altium Limited,Altium Designer,22.1.2 (22)*
G04*
G04 Layer_Color=255*
%FSLAX42Y42*%
%MOMM*%
G71*
G04*
G04 #@! TF.SameCoordinates,3311E10D-72A5-427B-B7FE-1BE08177FCE0*
G04*
G04*
G04 #@! TF.FilePolarity,Positive*
G04*
G01*
G75*
%ADD48R,2.00X2.00*%
%ADD49C,2.00*%
%ADD50R,1.50X1.50*%
%ADD51C,1.50*%
%ADD52R,1.25X1.25*%
%ADD53C,1.25*%
D48*
X4775Y2108D02*
D03*
D49*
Y2362D02*
D03*
Y2616D02*
D03*
Y2870D02*
D03*
Y3124D02*
D03*
Y3378D02*
D03*
Y3632D02*
D03*
Y3886D02*
D03*
Y4140D02*
D03*
Y4394D02*
D03*
Y4648D02*
D03*
Y4902D02*
D03*
Y5156D02*
D03*
Y5410D02*
D03*
Y5664D02*
D03*
X2235Y2108D02*
D03*
Y2362D02*
D03*
Y2616D02*
D03*
Y2870D02*
D03*
Y3124D02*
D03*
Y3378D02*
D03*
Y3632D02*
D03*
Y3886D02*
D03*
Y4140D02*
D03*
Y4394D02*
D03*
Y4648D02*
D03*
Y4902D02*
D03*
Y5156D02*
D03*
Y5410D02*
D03*
Y5664D02*
D03*
D50*
X3519Y6824D02*
D03*
X3188Y4407D02*
D03*
D51*
X3719Y6824D02*
D03*
X3950Y2883D02*
D03*
Y3137D02*
D03*
Y3391D02*
D03*
Y3645D02*
D03*
Y3899D02*
D03*
Y4153D02*
D03*
Y4407D02*
D03*
X3188Y2883D02*
D03*
Y3137D02*
D03*
Y3391D02*
D03*
Y3645D02*
D03*
Y3899D02*
D03*
Y4153D02*
D03*
D52*
X1570Y3073D02*
D03*
D53*
Y3327D02*
D03*
Y3581D02*
D03*
Y3835D02*
D03*
Y4089D02*
D03*
Y4343D02*
D03*
Y4597D02*
D03*
Y4851D02*
D03*
X690D02*
D03*
Y4597D02*
D03*
Y4343D02*
D03*
Y4089D02*
D03*
Y3835D02*
D03*
Y3581D02*
D03*
Y3327D02*
D03*
Y3073D02*
D03*
M02*
