G04*
G04 #@! TF.GenerationSoftware,Altium Limited,Altium Designer,22.1.2 (22)*
G04*
G04 Layer_Color=32768*
%FSLAX42Y42*%
%MOMM*%
G71*
G04*
G04 #@! TF.SameCoordinates,3311E10D-72A5-427B-B7FE-1BE08177FCE0*
G04*
G04*
G04 #@! TF.FilePolarity,Positive*
G04*
G01*
G75*
%ADD10C,0.20*%
%ADD58C,0.10*%
%ADD59C,0.05*%
D10*
X1058Y840D02*
X1254D01*
X1058Y498D02*
Y840D01*
Y498D02*
X1254D01*
Y840D01*
X5194Y5495D02*
Y5681D01*
Y5495D02*
X5525D01*
Y5681D01*
X5194D02*
X5525D01*
D58*
X2083Y6795D02*
Y6895D01*
X2033Y6845D02*
X2133D01*
X1105Y6795D02*
Y6895D01*
X1055Y6845D02*
X1155D01*
X5309Y4344D02*
Y4444D01*
X5259Y4394D02*
X5359D01*
X5321Y3836D02*
Y3936D01*
X5271Y3886D02*
X5371D01*
X5369Y5233D02*
Y5333D01*
X5319Y5283D02*
X5419D01*
X5334Y4687D02*
Y4737D01*
X5309Y4712D02*
X5359D01*
X5334Y3556D02*
Y3606D01*
X5309Y3581D02*
X5359D01*
X3569Y6769D02*
X3669D01*
X3619Y6719D02*
Y6819D01*
X3569Y3595D02*
Y3695D01*
X3519Y3645D02*
X3619D01*
X649Y705D02*
X749D01*
X699Y655D02*
Y755D01*
X3810Y1372D02*
Y1472D01*
X3760Y1422D02*
X3860D01*
X4267Y1372D02*
Y1472D01*
X4217Y1422D02*
X4317D01*
X2731Y1376D02*
Y1476D01*
X2681Y1426D02*
X2781D01*
X3200Y1376D02*
Y1476D01*
X3150Y1426D02*
X3250D01*
X3797Y4928D02*
Y5028D01*
X3747Y4978D02*
X3847D01*
X4254Y4928D02*
Y5028D01*
X4204Y4978D02*
X4304D01*
X2781Y4928D02*
Y5028D01*
X2731Y4978D02*
X2831D01*
X3238Y4932D02*
Y5032D01*
X3189Y4982D02*
X3288D01*
D59*
X4958Y1087D02*
Y6232D01*
X2057D02*
X4958D01*
X2057Y1087D02*
Y6232D01*
Y1087D02*
X4958D01*
X1633Y6513D02*
X2533D01*
Y7088D01*
X1633D02*
X2533D01*
X1633Y6513D02*
Y7088D01*
X655Y6513D02*
X1555D01*
Y7088D01*
X655D02*
X1555D01*
X655Y6513D02*
Y7088D01*
X5094Y4524D02*
X5524D01*
X5094Y4264D02*
X5524D01*
X5094D02*
Y4524D01*
X5524Y4264D02*
Y4524D01*
X5106Y4016D02*
X5536D01*
X5106Y3756D02*
X5536D01*
X5106D02*
Y4016D01*
X5536Y3756D02*
Y4016D01*
X5154Y5408D02*
X5584D01*
X5154Y5158D02*
X5584D01*
X5154D02*
Y5408D01*
X5584Y5158D02*
Y5408D01*
X5209Y4662D02*
Y4762D01*
X5459D01*
X5209Y4662D02*
X5459D01*
Y4762D01*
X5209Y3531D02*
Y3631D01*
X5459D01*
X5209Y3531D02*
X5459D01*
Y3631D01*
X3315Y7004D02*
X3924D01*
X3315Y6534D02*
Y7004D01*
X3924Y6534D02*
Y7004D01*
X3315Y6534D02*
X3924D01*
X3084Y2635D02*
X4054D01*
X3084Y4655D02*
X4054D01*
Y2635D02*
Y4655D01*
X3084Y2635D02*
Y4655D01*
X577Y934D02*
Y1784D01*
Y934D02*
X1277D01*
Y1784D01*
X577D02*
X1277D01*
X784Y570D02*
Y840D01*
X614Y570D02*
Y840D01*
X784D01*
X614Y570D02*
X784D01*
X3688Y1696D02*
Y2546D01*
Y1696D02*
X4389D01*
Y2546D01*
X3688D02*
X4389D01*
X2622Y1696D02*
Y2546D01*
Y1696D02*
X3322D01*
Y2546D01*
X2622D02*
X3322D01*
X3715Y1592D02*
X3905D01*
X3715Y1252D02*
X3905D01*
Y1592D01*
X3715Y1252D02*
Y1592D01*
X4172D02*
X4362D01*
X4172Y1252D02*
X4362D01*
Y1592D01*
X4172Y1252D02*
Y1592D01*
X2635Y1596D02*
X2825D01*
X2635Y1256D02*
X2825D01*
Y1596D01*
X2635Y1256D02*
Y1596D01*
X3105D02*
X3295D01*
X3105Y1256D02*
X3295D01*
Y1596D01*
X3105Y1256D02*
Y1596D01*
X603Y2937D02*
X1658D01*
X603Y4987D02*
X1658D01*
X603Y2937D02*
Y4987D01*
X1658Y2937D02*
Y4987D01*
X3676Y5252D02*
Y6102D01*
Y5252D02*
X4376D01*
Y6102D01*
X3676D02*
X4376D01*
X2660Y5239D02*
Y6089D01*
Y5239D02*
X3360D01*
Y6089D01*
X2660D02*
X3360D01*
X3702Y5148D02*
X3892D01*
X3702Y4808D02*
X3892D01*
Y5148D01*
X3702Y4808D02*
Y5148D01*
X4160D02*
X4349D01*
X4160Y4808D02*
X4349D01*
Y5148D01*
X4160Y4808D02*
Y5148D01*
X2686D02*
X2876D01*
X2686Y4808D02*
X2876D01*
Y5148D01*
X2686Y4808D02*
Y5148D01*
X3143Y5152D02*
X3333D01*
X3143Y4812D02*
X3333D01*
Y5152D01*
X3143Y4812D02*
Y5152D01*
M02*
