G04*
G04 #@! TF.GenerationSoftware,Altium Limited,Altium Designer,22.1.2 (22)*
G04*
G04 Layer_Color=65535*
%FSLAX42Y42*%
%MOMM*%
G71*
G04*
G04 #@! TF.SameCoordinates,3311E10D-72A5-427B-B7FE-1BE08177FCE0*
G04*
G04*
G04 #@! TF.FilePolarity,Positive*
G04*
G01*
G75*
%ADD10C,0.20*%
%ADD11C,0.25*%
%ADD12C,0.60*%
%ADD13C,0.13*%
%ADD14C,0.40*%
%ADD15C,0.25*%
D10*
X5000Y2108D02*
G03*
X5000Y2108I-10J0D01*
G01*
X3505Y4630D02*
G03*
X3632Y4630I63J0D01*
G01*
X538Y1029D02*
G03*
X538Y1029I-10J0D01*
G01*
X3650Y1791D02*
G03*
X3650Y1791I-10J0D01*
G01*
X2583D02*
G03*
X2583Y1791I-10J0D01*
G01*
X1693Y3073D02*
G03*
X1693Y3073I-10J0D01*
G01*
X3637Y5347D02*
G03*
X3637Y5347I-10J0D01*
G01*
X2621Y5334D02*
G03*
X2621Y5334I-10J0D01*
G01*
X1803Y7058D02*
X2363D01*
X2483Y6633D02*
Y6858D01*
X2403Y6633D02*
X2483D01*
X1683D02*
X1763D01*
X1683D02*
Y6858D01*
X825Y7058D02*
X1385D01*
X1505Y6633D02*
Y6858D01*
X1425Y6633D02*
X1505D01*
X705D02*
X785D01*
X705D02*
Y6858D01*
X5364Y5348D02*
X5374D01*
X5364Y5218D02*
X5374D01*
X3324Y6544D02*
X3915D01*
Y6994D01*
X3324Y6544D02*
Y6994D01*
X3915D01*
X3304Y2660D02*
X3834D01*
X3632Y4630D02*
X3834D01*
X3304D02*
X3505D01*
X3834Y2660D02*
Y4630D01*
X3304Y2660D02*
Y4630D01*
X1269Y523D02*
Y815D01*
X1043Y523D02*
Y815D01*
X5219Y5696D02*
X5500D01*
X5219Y5480D02*
X5500D01*
D11*
X2345Y6468D02*
G03*
X2345Y6468I-12J0D01*
G01*
X1367D02*
G03*
X1367Y6468I-12J0D01*
G01*
X3200Y4537D02*
G03*
X3200Y4537I-12J0D01*
G01*
D12*
X3434Y4530D02*
G03*
X3434Y4530I-30J0D01*
G01*
D13*
X2082Y1112D02*
Y6207D01*
X4933D01*
X2082Y1112D02*
X4933D01*
Y6207D01*
X3826Y1112D02*
X4933D01*
X3155D02*
X3826D01*
X2082D02*
X3155D01*
X4933D02*
Y6207D01*
X2082Y1112D02*
Y6207D01*
X4396D02*
X4933D01*
X2627D02*
X4396D01*
X2082D02*
X2627D01*
X602Y1184D02*
Y1534D01*
X1252D01*
Y1184D02*
Y1534D01*
X602Y1184D02*
X1252D01*
X3713Y1946D02*
Y2296D01*
X4364D01*
Y1946D02*
Y2296D01*
X3713Y1946D02*
X4364D01*
X2647D02*
Y2296D01*
X3297D01*
Y1946D02*
Y2296D01*
X2647Y1946D02*
X3297D01*
X775Y2962D02*
X1485D01*
X775Y4962D02*
X1485D01*
X3701Y5502D02*
Y5852D01*
X4351D01*
Y5502D02*
Y5852D01*
X3701Y5502D02*
X4351D01*
X2685Y5489D02*
Y5839D01*
X3335D01*
Y5489D02*
Y5839D01*
X2685Y5489D02*
X3335D01*
D14*
X5169Y4672D02*
Y4752D01*
Y3541D02*
Y3621D01*
D15*
X2794Y2743D02*
Y2642D01*
X2845Y2591D01*
X2896Y2642D01*
Y2743D01*
X2946Y2591D02*
Y2743D01*
X3023D01*
X3048Y2718D01*
Y2667D01*
X3023Y2642D01*
X2946D01*
X2997D02*
X3048Y2591D01*
X3200D02*
X3099D01*
X3200Y2692D01*
Y2718D01*
X3175Y2743D01*
X3124D01*
X3099Y2718D01*
X5066Y4949D02*
Y4830D01*
X5126D01*
X5146Y4850D01*
Y4929D01*
X5126Y4949D01*
X5066D01*
X5266Y4929D02*
X5246Y4949D01*
X5206D01*
X5186Y4929D01*
Y4910D01*
X5206Y4890D01*
X5246D01*
X5266Y4870D01*
Y4850D01*
X5246Y4830D01*
X5206D01*
X5186Y4850D01*
X5386Y4830D02*
X5306D01*
X5386Y4910D01*
Y4929D01*
X5366Y4949D01*
X5326D01*
X5306Y4929D01*
X5539Y5020D02*
Y5140D01*
X5599D01*
X5619Y5120D01*
Y5080D01*
X5599Y5060D01*
X5539D01*
X5579D02*
X5619Y5020D01*
X5719D02*
Y5140D01*
X5659Y5080D01*
X5739D01*
X4921Y3547D02*
X5074D01*
Y3623D01*
X5048Y3649D01*
X4947D01*
X4921Y3623D01*
Y3547D01*
X4947Y3801D02*
X4921Y3776D01*
Y3725D01*
X4947Y3699D01*
X4972D01*
X4997Y3725D01*
Y3776D01*
X5023Y3801D01*
X5048D01*
X5074Y3776D01*
Y3725D01*
X5048Y3699D01*
X5074Y3852D02*
Y3903D01*
Y3877D01*
X4921D01*
X4947Y3852D01*
X3823Y6325D02*
Y6223D01*
X3874Y6172D01*
X3924Y6223D01*
Y6325D01*
X3975Y6172D02*
Y6325D01*
X4051D01*
X4077Y6299D01*
Y6248D01*
X4051Y6223D01*
X3975D01*
X4026D02*
X4077Y6172D01*
X4229Y6325D02*
X4127D01*
Y6248D01*
X4178Y6274D01*
X4204D01*
X4229Y6248D01*
Y6198D01*
X4204Y6172D01*
X4153D01*
X4127Y6198D01*
X3366Y2540D02*
Y2438D01*
X3416Y2388D01*
X3467Y2438D01*
Y2540D01*
X3518Y2388D02*
Y2540D01*
X3594D01*
X3619Y2515D01*
Y2464D01*
X3594Y2438D01*
X3518D01*
X3569D02*
X3619Y2388D01*
X3746D02*
Y2540D01*
X3670Y2464D01*
X3772D01*
X2731Y6286D02*
Y6185D01*
X2781Y6134D01*
X2832Y6185D01*
Y6286D01*
X2883Y6134D02*
Y6286D01*
X2959D01*
X2984Y6261D01*
Y6210D01*
X2959Y6185D01*
X2883D01*
X2934D02*
X2984Y6134D01*
X3035Y6261D02*
X3061Y6286D01*
X3111D01*
X3137Y6261D01*
Y6236D01*
X3111Y6210D01*
X3086D01*
X3111D01*
X3137Y6185D01*
Y6160D01*
X3111Y6134D01*
X3061D01*
X3035Y6160D01*
X535Y2015D02*
Y1914D01*
X585Y1863D01*
X636Y1914D01*
Y2015D01*
X687Y1863D02*
Y2015D01*
X763D01*
X789Y1990D01*
Y1939D01*
X763Y1914D01*
X687D01*
X738D02*
X789Y1863D01*
X839D02*
X890D01*
X865D01*
Y2015D01*
X839Y1990D01*
X2807Y4216D02*
Y4089D01*
X2832Y4064D01*
X2883D01*
X2908Y4089D01*
Y4216D01*
X2959Y4191D02*
X2984Y4216D01*
X3035D01*
X3061Y4191D01*
Y4166D01*
X3035Y4140D01*
X3010D01*
X3035D01*
X3061Y4115D01*
Y4089D01*
X3035Y4064D01*
X2984D01*
X2959Y4089D01*
X1168Y5182D02*
Y5055D01*
X1194Y5029D01*
X1245D01*
X1270Y5055D01*
Y5182D01*
X1422Y5029D02*
X1321D01*
X1422Y5131D01*
Y5156D01*
X1397Y5182D01*
X1346D01*
X1321Y5156D01*
X5194Y1524D02*
X5067D01*
X5042Y1499D01*
Y1448D01*
X5067Y1422D01*
X5194D01*
X5042Y1372D02*
Y1321D01*
Y1346D01*
X5194D01*
X5169Y1372D01*
X5080Y5766D02*
Y5918D01*
X5156D01*
X5182Y5893D01*
Y5842D01*
X5156Y5817D01*
X5080D01*
X5131D02*
X5182Y5766D01*
X5232Y5893D02*
X5258Y5918D01*
X5309D01*
X5334Y5893D01*
Y5867D01*
X5309Y5842D01*
X5283D01*
X5309D01*
X5334Y5817D01*
Y5791D01*
X5309Y5766D01*
X5258D01*
X5232Y5791D01*
X5500Y4185D02*
Y4032D01*
X5424D01*
X5399Y4058D01*
Y4108D01*
X5424Y4134D01*
X5500D01*
X5450D02*
X5399Y4185D01*
X5246D02*
X5348D01*
X5246Y4083D01*
Y4058D01*
X5272Y4032D01*
X5323D01*
X5348Y4058D01*
X5513Y3677D02*
Y3524D01*
X5437D01*
X5412Y3550D01*
Y3600D01*
X5437Y3626D01*
X5513D01*
X5462D02*
X5412Y3677D01*
X5361D02*
X5310D01*
X5335D01*
Y3524D01*
X5361Y3550D01*
X2743Y6960D02*
Y7112D01*
X2819D01*
X2845Y7087D01*
Y7036D01*
X2819Y7010D01*
X2743D01*
X2896Y7112D02*
Y6960D01*
X2972D01*
X2997Y6985D01*
Y7010D01*
X2972Y7036D01*
X2896D01*
X2972D01*
X2997Y7061D01*
Y7087D01*
X2972Y7112D01*
X2896D01*
X3048Y6960D02*
Y7061D01*
X3099Y7112D01*
X3150Y7061D01*
Y6960D01*
Y7036D01*
X3048D01*
X3200Y7112D02*
X3302D01*
X3251D01*
Y6960D01*
X521Y6566D02*
X470D01*
X495D01*
Y6439D01*
X470Y6414D01*
X445D01*
X419Y6439D01*
X673Y6414D02*
X571D01*
X673Y6515D01*
Y6540D01*
X648Y6566D01*
X597D01*
X571Y6540D01*
X1600Y6591D02*
X1549D01*
X1575D01*
Y6464D01*
X1549Y6439D01*
X1524D01*
X1499Y6464D01*
X1651Y6439D02*
X1702D01*
X1676D01*
Y6591D01*
X1651Y6566D01*
X3454Y4788D02*
X3429Y4813D01*
X3378D01*
X3353Y4788D01*
Y4686D01*
X3378Y4661D01*
X3429D01*
X3454Y4686D01*
X3505Y4661D02*
X3556D01*
X3531D01*
Y4813D01*
X3505Y4788D01*
X3632D02*
X3658Y4813D01*
X3708D01*
X3734Y4788D01*
Y4686D01*
X3708Y4661D01*
X3658D01*
X3632Y4686D01*
Y4788D01*
X4470Y4978D02*
X4445Y5004D01*
X4394D01*
X4369Y4978D01*
Y4877D01*
X4394Y4851D01*
X4445D01*
X4470Y4877D01*
X4521D02*
X4547Y4851D01*
X4597D01*
X4623Y4877D01*
Y4978D01*
X4597Y5004D01*
X4547D01*
X4521Y4978D01*
Y4953D01*
X4547Y4928D01*
X4623D01*
X3747Y1067D02*
X3721Y1092D01*
X3670D01*
X3645Y1067D01*
Y965D01*
X3670Y940D01*
X3721D01*
X3747Y965D01*
X3797Y1067D02*
X3823Y1092D01*
X3873D01*
X3899Y1067D01*
Y1041D01*
X3873Y1016D01*
X3899Y991D01*
Y965D01*
X3873Y940D01*
X3823D01*
X3797Y965D01*
Y991D01*
X3823Y1016D01*
X3797Y1041D01*
Y1067D01*
X3823Y1016D02*
X3873D01*
X3556Y724D02*
X3531Y749D01*
X3480D01*
X3454Y724D01*
Y622D01*
X3480Y597D01*
X3531D01*
X3556Y622D01*
X3607Y749D02*
X3708D01*
Y724D01*
X3607Y622D01*
Y597D01*
X2845Y4724D02*
X2819Y4750D01*
X2769D01*
X2743Y4724D01*
Y4623D01*
X2769Y4597D01*
X2819D01*
X2845Y4623D01*
X2997Y4750D02*
X2946Y4724D01*
X2896Y4674D01*
Y4623D01*
X2921Y4597D01*
X2972D01*
X2997Y4623D01*
Y4648D01*
X2972Y4674D01*
X2896D01*
X3505Y5093D02*
X3531Y5118D01*
Y5169D01*
X3505Y5194D01*
X3404D01*
X3378Y5169D01*
Y5118D01*
X3404Y5093D01*
X3531Y4940D02*
Y5042D01*
X3454D01*
X3480Y4991D01*
Y4966D01*
X3454Y4940D01*
X3404D01*
X3378Y4966D01*
Y5017D01*
X3404Y5042D01*
X2705Y1029D02*
X2680Y1054D01*
X2629D01*
X2604Y1029D01*
Y927D01*
X2629Y902D01*
X2680D01*
X2705Y927D01*
X2832Y902D02*
Y1054D01*
X2756Y978D01*
X2857D01*
X3162Y1041D02*
X3137Y1067D01*
X3086D01*
X3061Y1041D01*
Y940D01*
X3086Y914D01*
X3137D01*
X3162Y940D01*
X3213Y1041D02*
X3238Y1067D01*
X3289D01*
X3315Y1041D01*
Y1016D01*
X3289Y991D01*
X3264D01*
X3289D01*
X3315Y965D01*
Y940D01*
X3289Y914D01*
X3238D01*
X3213Y940D01*
X408Y693D02*
X382Y668D01*
Y617D01*
X408Y592D01*
X509D01*
X535Y617D01*
Y668D01*
X509Y693D01*
X535Y846D02*
Y744D01*
X433Y846D01*
X408D01*
X382Y820D01*
Y769D01*
X408Y744D01*
X1482Y723D02*
X1507Y749D01*
Y800D01*
X1482Y825D01*
X1380D01*
X1355Y800D01*
Y749D01*
X1380Y723D01*
X1355Y673D02*
Y622D01*
Y647D01*
X1507D01*
X1482Y673D01*
M02*
