G04*
G04 #@! TF.GenerationSoftware,Altium Limited,Altium Designer,22.1.2 (22)*
G04*
G04 Layer_Color=16711935*
%FSLAX42Y42*%
%MOMM*%
G71*
G04*
G04 #@! TF.SameCoordinates,3311E10D-72A5-427B-B7FE-1BE08177FCE0*
G04*
G04*
G04 #@! TF.FilePolarity,Negative*
G04*
G01*
G75*
%ADD36R,2.20X2.20*%
%ADD37C,2.20*%
%ADD38R,1.70X1.70*%
%ADD39C,1.70*%
%ADD40R,1.45X1.45*%
%ADD41C,1.45*%
%ADD42C,1.40*%
%ADD43C,1.47*%
%ADD44C,3.70*%
D36*
X4775Y2108D02*
D03*
D37*
Y2362D02*
D03*
Y2616D02*
D03*
Y2870D02*
D03*
Y3124D02*
D03*
Y3378D02*
D03*
Y3632D02*
D03*
Y3886D02*
D03*
Y4140D02*
D03*
Y4394D02*
D03*
Y4648D02*
D03*
Y4902D02*
D03*
Y5156D02*
D03*
Y5410D02*
D03*
Y5664D02*
D03*
X2235Y2108D02*
D03*
Y2362D02*
D03*
Y2616D02*
D03*
Y2870D02*
D03*
Y3124D02*
D03*
Y3378D02*
D03*
Y3632D02*
D03*
Y3886D02*
D03*
Y4140D02*
D03*
Y4394D02*
D03*
Y4648D02*
D03*
Y4902D02*
D03*
Y5156D02*
D03*
Y5410D02*
D03*
Y5664D02*
D03*
D38*
X3519Y6824D02*
D03*
X3188Y4407D02*
D03*
D39*
X3719Y6824D02*
D03*
X3950Y2883D02*
D03*
Y3137D02*
D03*
Y3391D02*
D03*
Y3645D02*
D03*
Y3899D02*
D03*
Y4153D02*
D03*
Y4407D02*
D03*
X3188Y2883D02*
D03*
Y3137D02*
D03*
Y3391D02*
D03*
Y3645D02*
D03*
Y3899D02*
D03*
Y4153D02*
D03*
D40*
X1570Y3073D02*
D03*
D41*
Y3327D02*
D03*
Y3581D02*
D03*
Y3835D02*
D03*
Y4089D02*
D03*
Y4343D02*
D03*
Y4597D02*
D03*
Y4851D02*
D03*
X690D02*
D03*
Y4597D02*
D03*
Y4343D02*
D03*
Y4089D02*
D03*
Y3835D02*
D03*
Y3581D02*
D03*
Y3327D02*
D03*
Y3073D02*
D03*
D42*
X1156Y6261D02*
D03*
X4508Y6121D02*
D03*
X737D02*
D03*
X1283Y5740D02*
D03*
X2122Y6414D02*
D03*
X1285Y3086D02*
D03*
X1575Y5105D02*
D03*
X1816Y4343D02*
D03*
X1981Y3378D02*
D03*
X1791Y3581D02*
D03*
X3010Y4686D02*
D03*
X5067Y3124D02*
D03*
X5055Y3886D02*
D03*
X5042Y4394D02*
D03*
X2883Y4407D02*
D03*
X4149Y6824D02*
D03*
X4175Y3394D02*
D03*
X4166Y3137D02*
D03*
X1727Y2100D02*
D03*
D43*
X1435Y5537D02*
D03*
D44*
X300Y300D02*
D03*
X5500Y6900D02*
D03*
X300D02*
D03*
X5500Y300D02*
D03*
M02*
