G04*
G04 #@! TF.GenerationSoftware,Altium Limited,Altium Designer,22.1.2 (22)*
G04*
G04 Layer_Color=2752767*
%FSLAX42Y42*%
%MOMM*%
G71*
G04*
G04 #@! TF.SameCoordinates,3311E10D-72A5-427B-B7FE-1BE08177FCE0*
G04*
G04*
G04 #@! TF.FilePolarity,Positive*
G04*
G01*
G75*
%ADD60C,0.05*%
%ADD61C,0.07*%
D60*
X4755Y2088D02*
Y2129D01*
X4796D01*
Y2088D01*
X4755D01*
Y2342D02*
Y2383D01*
X4796D01*
Y2342D01*
X4755D01*
Y2596D02*
Y2637D01*
X4796D01*
Y2596D01*
X4755D01*
Y2850D02*
Y2891D01*
X4796D01*
Y2850D01*
X4755D01*
Y3104D02*
Y3145D01*
X4796D01*
Y3104D01*
X4755D01*
Y3358D02*
Y3399D01*
X4796D01*
Y3358D01*
X4755D01*
Y3612D02*
Y3653D01*
X4796D01*
Y3612D01*
X4755D01*
Y3866D02*
Y3907D01*
X4796D01*
Y3866D01*
X4755D01*
Y4120D02*
Y4161D01*
X4796D01*
Y4120D01*
X4755D01*
Y4374D02*
Y4415D01*
X4796D01*
Y4374D01*
X4755D01*
Y4628D02*
Y4669D01*
X4796D01*
Y4628D01*
X4755D01*
Y4882D02*
Y4923D01*
X4796D01*
Y4882D01*
X4755D01*
Y5136D02*
Y5177D01*
X4796D01*
Y5136D01*
X4755D01*
Y5390D02*
Y5431D01*
X4796D01*
Y5390D01*
X4755D01*
Y5644D02*
Y5685D01*
X4796D01*
Y5644D01*
X4755D01*
X2215Y2088D02*
Y2129D01*
X2256D01*
Y2088D01*
X2215D01*
Y2342D02*
Y2383D01*
X2256D01*
Y2342D01*
X2215D01*
Y2596D02*
Y2637D01*
X2256D01*
Y2596D01*
X2215D01*
Y2850D02*
Y2891D01*
X2256D01*
Y2850D01*
X2215D01*
Y3104D02*
Y3145D01*
X2256D01*
Y3104D01*
X2215D01*
Y3358D02*
Y3399D01*
X2256D01*
Y3358D01*
X2215D01*
Y3612D02*
Y3653D01*
X2256D01*
Y3612D01*
X2215D01*
Y3866D02*
Y3907D01*
X2256D01*
Y3866D01*
X2215D01*
Y4120D02*
Y4161D01*
X2256D01*
Y4120D01*
X2215D01*
Y4374D02*
Y4415D01*
X2256D01*
Y4374D01*
X2215D01*
Y4628D02*
Y4669D01*
X2256D01*
Y4628D01*
X2215D01*
Y4882D02*
Y4923D01*
X2256D01*
Y4882D01*
X2215D01*
Y5136D02*
Y5177D01*
X2256D01*
Y5136D01*
X2215D01*
Y5390D02*
Y5431D01*
X2256D01*
Y5390D01*
X2215D01*
Y5644D02*
Y5685D01*
X2256D01*
Y5644D01*
X2215D01*
X3950Y2863D02*
X3929Y2903D01*
X3970D01*
X3950Y2863D01*
Y3117D02*
X3929Y3157D01*
X3970D01*
X3950Y3117D01*
Y3371D02*
X3929Y3411D01*
X3970D01*
X3950Y3371D01*
Y3625D02*
X3929Y3665D01*
X3970D01*
X3950Y3625D01*
Y3879D02*
X3929Y3919D01*
X3970D01*
X3950Y3879D01*
Y4133D02*
X3929Y4173D01*
X3970D01*
X3950Y4133D01*
Y4387D02*
X3929Y4427D01*
X3970D01*
X3950Y4387D01*
X3188Y2863D02*
X3167Y2903D01*
X3208D01*
X3188Y2863D01*
Y3117D02*
X3167Y3157D01*
X3208D01*
X3188Y3117D01*
Y3371D02*
X3167Y3411D01*
X3208D01*
X3188Y3371D01*
Y3625D02*
X3167Y3665D01*
X3208D01*
X3188Y3625D01*
Y3879D02*
X3167Y3919D01*
X3208D01*
X3188Y3879D01*
Y4133D02*
X3167Y4173D01*
X3208D01*
X3188Y4133D01*
Y4387D02*
X3167Y4427D01*
X3208D01*
X3188Y4387D01*
X1570Y3053D02*
X1550Y3094D01*
X1591D01*
X1570Y3053D01*
Y3307D02*
X1550Y3348D01*
X1591D01*
X1570Y3307D01*
Y3561D02*
X1550Y3602D01*
X1591D01*
X1570Y3561D01*
Y3815D02*
X1550Y3856D01*
X1591D01*
X1570Y3815D01*
Y4069D02*
X1550Y4110D01*
X1591D01*
X1570Y4069D01*
Y4323D02*
X1550Y4364D01*
X1591D01*
X1570Y4323D01*
Y4577D02*
X1550Y4618D01*
X1591D01*
X1570Y4577D01*
Y4831D02*
X1550Y4872D01*
X1591D01*
X1570Y4831D01*
X690D02*
X670Y4872D01*
X711D01*
X690Y4831D01*
Y4577D02*
X670Y4618D01*
X711D01*
X690Y4577D01*
Y4323D02*
X670Y4364D01*
X711D01*
X690Y4323D01*
Y4069D02*
X670Y4110D01*
X711D01*
X690Y4069D01*
Y3815D02*
X670Y3856D01*
X711D01*
X690Y3815D01*
Y3561D02*
X670Y3602D01*
X711D01*
X690Y3561D01*
Y3307D02*
X670Y3348D01*
X711D01*
X690Y3307D01*
Y3053D02*
X670Y3094D01*
X711D01*
X690Y3053D01*
X1156Y6241D02*
X1166Y6251D01*
X1176D01*
X1166Y6261D01*
X1176Y6271D01*
X1166D01*
X1156Y6281D01*
X1146Y6271D01*
X1135D01*
X1146Y6261D01*
X1135Y6251D01*
X1146D01*
X1156Y6241D01*
X4508Y6101D02*
X4519Y6111D01*
X4529D01*
X4519Y6121D01*
X4529Y6132D01*
X4519D01*
X4508Y6142D01*
X4498Y6132D01*
X4488D01*
X4498Y6121D01*
X4488Y6111D01*
X4498D01*
X4508Y6101D01*
X737D02*
X747Y6111D01*
X757D01*
X747Y6121D01*
X757Y6132D01*
X747D01*
X737Y6142D01*
X726Y6132D01*
X716D01*
X726Y6121D01*
X716Y6111D01*
X726D01*
X737Y6101D01*
X1283Y5720D02*
X1293Y5730D01*
X1303D01*
X1293Y5740D01*
X1303Y5751D01*
X1293D01*
X1283Y5761D01*
X1273Y5751D01*
X1262D01*
X1273Y5740D01*
X1262Y5730D01*
X1273D01*
X1283Y5720D01*
X1415Y5517D02*
X1425Y5537D01*
X1415Y5558D01*
X1435Y5547D01*
X1455Y5558D01*
X1445Y5537D01*
X1455Y5517D01*
X1435Y5527D01*
X1415Y5517D01*
X2122Y6393D02*
X2133Y6403D01*
X2143D01*
X2133Y6414D01*
X2143Y6424D01*
X2133D01*
X2122Y6434D01*
X2112Y6424D01*
X2102D01*
X2112Y6414D01*
X2102Y6403D01*
X2112D01*
X2122Y6393D01*
X1285Y3066D02*
X1295Y3076D01*
X1305D01*
X1295Y3086D01*
X1305Y3096D01*
X1295D01*
X1285Y3106D01*
X1274Y3096D01*
X1264D01*
X1274Y3086D01*
X1264Y3076D01*
X1274D01*
X1285Y3066D01*
X290Y290D02*
Y280D01*
X310D01*
Y290D01*
X320D01*
Y310D01*
X310D01*
Y320D01*
X290D01*
Y310D01*
X280D01*
Y290D01*
X290D01*
X5490Y6890D02*
Y6880D01*
X5510D01*
Y6890D01*
X5520D01*
Y6910D01*
X5510D01*
Y6920D01*
X5490D01*
Y6910D01*
X5480D01*
Y6890D01*
X5490D01*
X1575Y5085D02*
X1585Y5095D01*
X1595D01*
X1585Y5105D01*
X1595Y5116D01*
X1585D01*
X1575Y5126D01*
X1565Y5116D01*
X1554D01*
X1565Y5105D01*
X1554Y5095D01*
X1565D01*
X1575Y5085D01*
X290Y6890D02*
Y6880D01*
X310D01*
Y6890D01*
X320D01*
Y6910D01*
X310D01*
Y6920D01*
X290D01*
Y6910D01*
X280D01*
Y6890D01*
X290D01*
X5490Y290D02*
Y280D01*
X5510D01*
Y290D01*
X5520D01*
Y310D01*
X5510D01*
Y320D01*
X5490D01*
Y310D01*
X5480D01*
Y290D01*
X5490D01*
X1816Y4323D02*
X1826Y4333D01*
X1836D01*
X1826Y4343D01*
X1836Y4354D01*
X1826D01*
X1816Y4364D01*
X1806Y4354D01*
X1796D01*
X1806Y4343D01*
X1796Y4333D01*
X1806D01*
X1816Y4323D01*
X1981Y3358D02*
X1991Y3368D01*
X2002D01*
X1991Y3378D01*
X2002Y3388D01*
X1991D01*
X1981Y3399D01*
X1971Y3388D01*
X1961D01*
X1971Y3378D01*
X1961Y3368D01*
X1971D01*
X1981Y3358D01*
X1791Y3561D02*
X1801Y3571D01*
X1811D01*
X1801Y3581D01*
X1811Y3592D01*
X1801D01*
X1791Y3602D01*
X1781Y3592D01*
X1770D01*
X1781Y3581D01*
X1770Y3571D01*
X1781D01*
X1791Y3561D01*
X3010Y4666D02*
X3020Y4676D01*
X3030D01*
X3020Y4686D01*
X3030Y4696D01*
X3020D01*
X3010Y4707D01*
X3000Y4696D01*
X2990D01*
X3000Y4686D01*
X2990Y4676D01*
X3000D01*
X3010Y4666D01*
X5067Y3104D02*
X5077Y3114D01*
X5088D01*
X5077Y3124D01*
X5088Y3134D01*
X5077D01*
X5067Y3145D01*
X5057Y3134D01*
X5047D01*
X5057Y3124D01*
X5047Y3114D01*
X5057D01*
X5067Y3104D01*
X5055Y3866D02*
X5065Y3876D01*
X5075D01*
X5065Y3886D01*
X5075Y3896D01*
X5065D01*
X5055Y3907D01*
X5044Y3896D01*
X5034D01*
X5044Y3886D01*
X5034Y3876D01*
X5044D01*
X5055Y3866D01*
X5042Y4374D02*
X5052Y4384D01*
X5062D01*
X5052Y4394D01*
X5062Y4404D01*
X5052D01*
X5042Y4415D01*
X5032Y4404D01*
X5022D01*
X5032Y4394D01*
X5022Y4384D01*
X5032D01*
X5042Y4374D01*
X2883Y4387D02*
X2893Y4397D01*
X2903D01*
X2893Y4407D01*
X2903Y4417D01*
X2893D01*
X2883Y4427D01*
X2873Y4417D01*
X2863D01*
X2873Y4407D01*
X2863Y4397D01*
X2873D01*
X2883Y4387D01*
X4149Y6804D02*
X4159Y6814D01*
X4169D01*
X4159Y6824D01*
X4169Y6834D01*
X4159D01*
X4149Y6844D01*
X4139Y6834D01*
X4128D01*
X4139Y6824D01*
X4128Y6814D01*
X4139D01*
X4149Y6804D01*
X4175Y3374D02*
X4185Y3384D01*
X4195D01*
X4185Y3394D01*
X4195Y3404D01*
X4185D01*
X4175Y3414D01*
X4165Y3404D01*
X4155D01*
X4165Y3394D01*
X4155Y3384D01*
X4165D01*
X4175Y3374D01*
X4166Y3117D02*
X4176Y3127D01*
X4186D01*
X4176Y3137D01*
X4186Y3147D01*
X4176D01*
X4166Y3157D01*
X4155Y3147D01*
X4145D01*
X4155Y3137D01*
X4145Y3127D01*
X4155D01*
X4166Y3117D01*
X1727Y2080D02*
X1737Y2090D01*
X1748D01*
X1737Y2100D01*
X1748Y2111D01*
X1737D01*
X1727Y2121D01*
X1717Y2111D01*
X1707D01*
X1717Y2100D01*
X1707Y2090D01*
X1717D01*
X1727Y2080D01*
D61*
X3540Y6824D02*
G03*
X3540Y6824I-20J0D01*
G01*
X3740D02*
G03*
X3740Y6824I-20J0D01*
G01*
M02*
