G04*
G04 #@! TF.GenerationSoftware,Altium Limited,Altium Designer,22.1.2 (22)*
G04*
G04 Layer_Color=8388736*
%FSLAX42Y42*%
%MOMM*%
G71*
G04*
G04 #@! TF.SameCoordinates,3311E10D-72A5-427B-B7FE-1BE08177FCE0*
G04*
G04*
G04 #@! TF.FilePolarity,Negative*
G04*
G01*
G75*
%ADD24R,1.46X1.30*%
%ADD26R,1.06X1.36*%
%ADD27R,0.80X1.75*%
%ADD28R,1.40X2.00*%
%ADD29R,1.60X1.75*%
%ADD30R,1.40X1.70*%
%ADD31R,1.00X1.00*%
G04:AMPARAMS|DCode=32|XSize=1.13mm|YSize=1.51mm|CornerRadius=0.17mm|HoleSize=0mm|Usage=FLASHONLY|Rotation=0.000|XOffset=0mm|YOffset=0mm|HoleType=Round|Shape=RoundedRectangle|*
%AMROUNDEDRECTD32*
21,1,1.13,1.17,0,0,0.0*
21,1,0.79,1.51,0,0,0.0*
1,1,0.34,0.40,-0.59*
1,1,0.34,-0.40,-0.59*
1,1,0.34,-0.40,0.59*
1,1,0.34,0.40,0.59*
%
%ADD32ROUNDEDRECTD32*%
G04:AMPARAMS|DCode=33|XSize=3.44mm|YSize=1.51mm|CornerRadius=0.2mm|HoleSize=0mm|Usage=FLASHONLY|Rotation=0.000|XOffset=0mm|YOffset=0mm|HoleType=Round|Shape=RoundedRectangle|*
%AMROUNDEDRECTD33*
21,1,3.44,1.11,0,0,0.0*
21,1,3.04,1.51,0,0,0.0*
1,1,0.40,1.52,-0.56*
1,1,0.40,-1.52,-0.56*
1,1,0.40,-1.52,0.56*
1,1,0.40,1.52,0.56*
%
%ADD33ROUNDEDRECTD33*%
%ADD34R,1.55X1.30*%
%ADD35R,1.60X1.40*%
%ADD36R,2.20X2.20*%
%ADD37C,2.20*%
%ADD38R,1.70X1.70*%
%ADD39C,1.70*%
%ADD40R,1.45X1.45*%
%ADD41C,1.45*%
%ADD42C,1.40*%
%ADD43C,1.47*%
%ADD44C,3.70*%
D24*
X1156Y588D02*
D03*
Y749D02*
D03*
D26*
X5447Y5588D02*
D03*
X5272D02*
D03*
D27*
X1833Y6600D02*
D03*
X1933D02*
D03*
X2033D02*
D03*
X2133D02*
D03*
X2233D02*
D03*
X2333D02*
D03*
X855D02*
D03*
X955D02*
D03*
X1055D02*
D03*
X1155D02*
D03*
X1255D02*
D03*
X1355D02*
D03*
D28*
X1485Y6988D02*
D03*
X725D02*
D03*
D29*
X5214Y4394D02*
D03*
X5404D02*
D03*
X5226Y3886D02*
D03*
X5416D02*
D03*
D30*
X5264Y5283D02*
D03*
X5474D02*
D03*
D31*
X5259Y4712D02*
D03*
X5409D02*
D03*
X5259Y3581D02*
D03*
X5409D02*
D03*
D32*
X698Y1024D02*
D03*
X927D02*
D03*
X1156D02*
D03*
X3810Y1786D02*
D03*
X4039D02*
D03*
X4268D02*
D03*
X2743D02*
D03*
X2972D02*
D03*
X3201D02*
D03*
X3797Y5342D02*
D03*
X4026D02*
D03*
X4255D02*
D03*
X2781Y5330D02*
D03*
X3010D02*
D03*
X3239D02*
D03*
D33*
X927Y1693D02*
D03*
X4039Y2455D02*
D03*
X2972D02*
D03*
X4026Y6011D02*
D03*
X3010Y5999D02*
D03*
D34*
X699Y775D02*
D03*
Y635D02*
D03*
D35*
X3810Y1507D02*
D03*
Y1337D02*
D03*
X4267Y1507D02*
D03*
Y1337D02*
D03*
X2731Y1511D02*
D03*
Y1341D02*
D03*
X3200Y1511D02*
D03*
Y1341D02*
D03*
X3797Y5063D02*
D03*
Y4893D02*
D03*
X4254Y5063D02*
D03*
Y4893D02*
D03*
X2781Y5063D02*
D03*
Y4893D02*
D03*
X3238Y5067D02*
D03*
Y4897D02*
D03*
D36*
X4775Y2108D02*
D03*
D37*
Y2362D02*
D03*
Y2616D02*
D03*
Y2870D02*
D03*
Y3124D02*
D03*
Y3378D02*
D03*
Y3632D02*
D03*
Y3886D02*
D03*
Y4140D02*
D03*
Y4394D02*
D03*
Y4648D02*
D03*
Y4902D02*
D03*
Y5156D02*
D03*
Y5410D02*
D03*
Y5664D02*
D03*
X2235Y2108D02*
D03*
Y2362D02*
D03*
Y2616D02*
D03*
Y2870D02*
D03*
Y3124D02*
D03*
Y3378D02*
D03*
Y3632D02*
D03*
Y3886D02*
D03*
Y4140D02*
D03*
Y4394D02*
D03*
Y4648D02*
D03*
Y4902D02*
D03*
Y5156D02*
D03*
Y5410D02*
D03*
Y5664D02*
D03*
D38*
X3519Y6824D02*
D03*
X3188Y4407D02*
D03*
D39*
X3719Y6824D02*
D03*
X3950Y2883D02*
D03*
Y3137D02*
D03*
Y3391D02*
D03*
Y3645D02*
D03*
Y3899D02*
D03*
Y4153D02*
D03*
Y4407D02*
D03*
X3188Y2883D02*
D03*
Y3137D02*
D03*
Y3391D02*
D03*
Y3645D02*
D03*
Y3899D02*
D03*
Y4153D02*
D03*
D40*
X1570Y3073D02*
D03*
D41*
Y3327D02*
D03*
Y3581D02*
D03*
Y3835D02*
D03*
Y4089D02*
D03*
Y4343D02*
D03*
Y4597D02*
D03*
Y4851D02*
D03*
X690D02*
D03*
Y4597D02*
D03*
Y4343D02*
D03*
Y4089D02*
D03*
Y3835D02*
D03*
Y3581D02*
D03*
Y3327D02*
D03*
Y3073D02*
D03*
D42*
X1156Y6261D02*
D03*
X4508Y6121D02*
D03*
X737D02*
D03*
X1283Y5740D02*
D03*
X2122Y6414D02*
D03*
X1285Y3086D02*
D03*
X1575Y5105D02*
D03*
X1816Y4343D02*
D03*
X1981Y3378D02*
D03*
X1791Y3581D02*
D03*
X3010Y4686D02*
D03*
X5067Y3124D02*
D03*
X5055Y3886D02*
D03*
X5042Y4394D02*
D03*
X2883Y4407D02*
D03*
X4149Y6824D02*
D03*
X4175Y3394D02*
D03*
X4166Y3137D02*
D03*
X1727Y2100D02*
D03*
D43*
X1435Y5537D02*
D03*
D44*
X300Y300D02*
D03*
X5500Y6900D02*
D03*
X300D02*
D03*
X5500Y300D02*
D03*
M02*
