M48
;Layer_Color=9474304
;FILE_FORMAT=4:2
METRIC,LZ
;TYPE=PLATED
T1F00S00C0.71
T2F00S00C0.80
T3F00S00C0.90
T4F00S00C1.00
T5F00S00C1.02
T6F00S00C3.50
%
T01
X001435Y005537
T02
X001727Y0021
X001285Y003086
X001981Y003378
X001791Y003581
X004175Y003394
X004166Y003137
X005067Y003124
X005055Y003886
X005042Y004394
X004508Y006121
X004149Y006824
X002122Y006414
X001156Y006261
X000737Y006121
X001283Y00574
X001575Y005105
X001816Y004343
X002883Y004407
X00301Y004686
T03
X00069Y003073
Y003327
Y003581
Y003835
X00157
Y003581
Y003327
Y003073
X003188Y003137
Y002883
Y003391
Y003645
Y003899
X00395
Y003645
Y003391
Y003137
Y002883
Y004153
Y004407
X003188
Y004153
X00157Y004089
Y004343
Y004597
Y004851
X00069
Y004597
Y004343
Y004089
T04
X003519Y006824
X003719
T05
X002235Y002108
Y002362
Y002616
Y00287
Y003124
Y003378
Y003632
Y003886
X004775
Y003632
Y003378
Y003124
Y00287
Y002616
Y002362
Y002108
Y00414
Y004394
Y004648
Y004902
Y005156
Y00541
Y005664
X002235
Y00541
Y005156
Y004902
Y004648
Y004394
Y00414
T06
X0003Y0003
X0055
Y0069
X0003
M30
