G04*
G04 #@! TF.GenerationSoftware,Altium Limited,Altium Designer,22.1.2 (22)*
G04*
G04 Layer_Physical_Order=2*
G04 Layer_Color=16711680*
%FSLAX42Y42*%
%MOMM*%
G71*
G04*
G04 #@! TF.SameCoordinates,A203A032-6305-4368-AECA-5A3810FB51A2*
G04*
G04*
G04 #@! TF.FilePolarity,Positive*
G04*
G01*
G75*
%ADD10C,0.80*%
%ADD11C,1.00*%
%ADD12R,2.00X2.00*%
%ADD13C,2.00*%
%ADD14R,1.50X1.50*%
%ADD15C,1.50*%
%ADD16R,1.25X1.25*%
%ADD17C,1.25*%
%ADD18C,1.20*%
%ADD19C,1.27*%
%ADD20C,3.50*%
%ADD21C,0.25*%
G36*
X5761Y39D02*
X39D01*
Y7161D01*
X5761D01*
Y39D01*
D02*
G37*
%LPC*%
G36*
X3719Y6925D02*
X3693Y6922D01*
X3669Y6912D01*
X3648Y6896D01*
X3633Y6876D01*
X3631Y6876D01*
X3620Y6884D01*
Y6925D01*
X3532D01*
Y6824D01*
Y6724D01*
X3620D01*
Y6764D01*
X3631Y6772D01*
X3633Y6772D01*
X3648Y6752D01*
X3654Y6748D01*
Y6488D01*
X3645Y6479D01*
X2177D01*
X2165Y6488D01*
X2145Y6497D01*
X2122Y6500D01*
X2100Y6497D01*
X2079Y6488D01*
X2068Y6479D01*
X1308D01*
X1291Y6477D01*
X1275Y6471D01*
X1261Y6460D01*
X1147Y6346D01*
X1133Y6344D01*
X1113Y6336D01*
X1095Y6322D01*
X1081Y6304D01*
X1072Y6283D01*
X1070Y6261D01*
X1072Y6239D01*
X1081Y6218D01*
X1095Y6200D01*
X1096Y6199D01*
X1092Y6187D01*
X791D01*
X780Y6196D01*
X759Y6205D01*
X737Y6208D01*
X714Y6205D01*
X694Y6196D01*
X676Y6182D01*
X662Y6164D01*
X653Y6144D01*
X650Y6121D01*
X653Y6099D01*
X662Y6078D01*
X676Y6060D01*
X694Y6047D01*
X714Y6038D01*
X737Y6035D01*
X759Y6038D01*
X780Y6047D01*
X791Y6055D01*
X4454D01*
X4465Y6047D01*
X4486Y6038D01*
X4508Y6035D01*
X4531Y6038D01*
X4552Y6047D01*
X4569Y6060D01*
X4583Y6078D01*
X4592Y6099D01*
X4595Y6121D01*
X4592Y6144D01*
X4583Y6164D01*
X4569Y6182D01*
X4552Y6196D01*
X4531Y6205D01*
X4508Y6208D01*
X4486Y6205D01*
X4465Y6196D01*
X4454Y6187D01*
X1220D01*
X1216Y6199D01*
X1217Y6200D01*
X1230Y6218D01*
X1239Y6239D01*
X1241Y6253D01*
X1335Y6348D01*
X2068D01*
X2079Y6339D01*
X2100Y6330D01*
X2122Y6327D01*
X2145Y6330D01*
X2165Y6339D01*
X2177Y6348D01*
X3673D01*
X3690Y6350D01*
X3706Y6356D01*
X3719Y6367D01*
X3766Y6414D01*
X3777Y6427D01*
X3783Y6443D01*
X3785Y6460D01*
Y6748D01*
X3791Y6752D01*
X3795Y6758D01*
X4094D01*
X4106Y6750D01*
X4126Y6741D01*
X4149Y6738D01*
X4171Y6741D01*
X4192Y6750D01*
X4210Y6763D01*
X4223Y6781D01*
X4232Y6802D01*
X4235Y6824D01*
X4232Y6846D01*
X4223Y6867D01*
X4210Y6885D01*
X4192Y6899D01*
X4171Y6907D01*
X4149Y6910D01*
X4126Y6907D01*
X4106Y6899D01*
X4094Y6890D01*
X3795D01*
X3791Y6896D01*
X3770Y6912D01*
X3746Y6922D01*
X3719Y6925D01*
D02*
G37*
G36*
X3507Y6925D02*
X3419D01*
Y6837D01*
X3507D01*
Y6925D01*
D02*
G37*
G36*
Y6811D02*
X3419D01*
Y6724D01*
X3507D01*
Y6811D01*
D02*
G37*
G36*
X5500Y7101D02*
X5461Y7097D01*
X5423Y7086D01*
X5388Y7067D01*
X5358Y7042D01*
X5333Y7012D01*
X5314Y6977D01*
X5302Y6939D01*
X5299Y6900D01*
X5302Y6861D01*
X5314Y6823D01*
X5333Y6788D01*
X5358Y6758D01*
X5388Y6733D01*
X5423Y6714D01*
X5461Y6702D01*
X5500Y6699D01*
X5539Y6702D01*
X5577Y6714D01*
X5612Y6733D01*
X5642Y6758D01*
X5667Y6788D01*
X5686Y6823D01*
X5697Y6861D01*
X5701Y6900D01*
X5697Y6939D01*
X5686Y6977D01*
X5667Y7012D01*
X5642Y7042D01*
X5612Y7067D01*
X5577Y7086D01*
X5539Y7097D01*
X5500Y7101D01*
D02*
G37*
G36*
X300D02*
X261Y7097D01*
X223Y7086D01*
X188Y7067D01*
X158Y7042D01*
X133Y7012D01*
X114Y6977D01*
X102Y6939D01*
X99Y6900D01*
X102Y6861D01*
X114Y6823D01*
X133Y6788D01*
X158Y6758D01*
X188Y6733D01*
X223Y6714D01*
X261Y6702D01*
X300Y6699D01*
X339Y6702D01*
X377Y6714D01*
X412Y6733D01*
X442Y6758D01*
X467Y6788D01*
X486Y6823D01*
X497Y6861D01*
X501Y6900D01*
X497Y6939D01*
X486Y6977D01*
X467Y7012D01*
X442Y7042D01*
X412Y7067D01*
X377Y7086D01*
X339Y7097D01*
X300Y7101D01*
D02*
G37*
G36*
X1283Y5827D02*
X1260Y5824D01*
X1240Y5815D01*
X1228Y5806D01*
X508D01*
X491Y5804D01*
X475Y5798D01*
X461Y5787D01*
X309Y5635D01*
X298Y5621D01*
X292Y5605D01*
X290Y5588D01*
Y3628D01*
X292Y3611D01*
X298Y3595D01*
X309Y3582D01*
X356Y3535D01*
X369Y3524D01*
X385Y3518D01*
X402Y3515D01*
X632D01*
X646Y3505D01*
X667Y3496D01*
X690Y3493D01*
X713Y3496D01*
X735Y3505D01*
X753Y3519D01*
X767Y3537D01*
X776Y3558D01*
X779Y3581D01*
X776Y3604D01*
X767Y3626D01*
X753Y3644D01*
X735Y3658D01*
X713Y3667D01*
X690Y3670D01*
X667Y3667D01*
X646Y3658D01*
X632Y3647D01*
X430D01*
X422Y3656D01*
Y5561D01*
X535Y5674D01*
X1228D01*
X1240Y5666D01*
X1260Y5657D01*
X1283Y5654D01*
X1305Y5657D01*
X1326Y5666D01*
X1344Y5679D01*
X1357Y5697D01*
X1366Y5718D01*
X1369Y5740D01*
X1366Y5763D01*
X1357Y5783D01*
X1344Y5801D01*
X1326Y5815D01*
X1305Y5824D01*
X1283Y5827D01*
D02*
G37*
G36*
X2235Y5791D02*
X2202Y5786D01*
X2172Y5774D01*
X2146Y5754D01*
X2126Y5727D01*
X2113Y5697D01*
X2109Y5664D01*
X2113Y5631D01*
X2126Y5601D01*
X2146Y5575D01*
X2172Y5555D01*
X2198Y5544D01*
Y5530D01*
X2172Y5520D01*
X2146Y5500D01*
X2126Y5473D01*
X2113Y5443D01*
X2109Y5410D01*
X2113Y5377D01*
X2126Y5347D01*
X2146Y5321D01*
X2172Y5301D01*
X2198Y5290D01*
Y5276D01*
X2172Y5266D01*
X2146Y5246D01*
X2126Y5219D01*
X2120Y5206D01*
X2107Y5207D01*
X2102Y5219D01*
X2091Y5232D01*
X2043Y5281D01*
X2029Y5291D01*
X2013Y5298D01*
X1996Y5300D01*
X739D01*
X723Y5298D01*
X722Y5299D01*
X719Y5312D01*
X878Y5471D01*
X1375D01*
X1390Y5460D01*
X1412Y5451D01*
X1435Y5448D01*
X1458Y5451D01*
X1480Y5460D01*
X1499Y5474D01*
X1513Y5492D01*
X1522Y5514D01*
X1525Y5537D01*
X1522Y5560D01*
X1513Y5582D01*
X1499Y5601D01*
X1480Y5615D01*
X1458Y5624D01*
X1435Y5627D01*
X1412Y5624D01*
X1390Y5615D01*
X1375Y5603D01*
X851D01*
X834Y5601D01*
X818Y5594D01*
X804Y5584D01*
X461Y5241D01*
X451Y5227D01*
X444Y5211D01*
X442Y5194D01*
Y4390D01*
X444Y4373D01*
X451Y4357D01*
X461Y4344D01*
X508Y4297D01*
X522Y4286D01*
X538Y4280D01*
X555Y4277D01*
X632D01*
X646Y4267D01*
X667Y4258D01*
X690Y4255D01*
X713Y4258D01*
X735Y4267D01*
X753Y4281D01*
X767Y4299D01*
X776Y4320D01*
X779Y4343D01*
X776Y4366D01*
X767Y4388D01*
X753Y4406D01*
X735Y4420D01*
X713Y4429D01*
X690Y4432D01*
X667Y4429D01*
X646Y4420D01*
X632Y4409D01*
X582D01*
X574Y4418D01*
Y5167D01*
X612Y5205D01*
X625Y5202D01*
X626Y5201D01*
X624Y5186D01*
Y4910D01*
X614Y4896D01*
X605Y4874D01*
X602Y4851D01*
X605Y4828D01*
X614Y4807D01*
X628Y4789D01*
X646Y4775D01*
X667Y4766D01*
X690Y4763D01*
X713Y4766D01*
X735Y4775D01*
X753Y4789D01*
X767Y4807D01*
X776Y4828D01*
X779Y4851D01*
X776Y4874D01*
X767Y4896D01*
X756Y4910D01*
Y5158D01*
X766Y5168D01*
X1499D01*
X1506Y5156D01*
X1500Y5148D01*
X1492Y5128D01*
X1489Y5105D01*
X1492Y5083D01*
X1500Y5062D01*
X1507Y5054D01*
Y4913D01*
X1494Y4896D01*
X1485Y4874D01*
X1482Y4851D01*
X1485Y4828D01*
X1494Y4807D01*
X1508Y4789D01*
X1526Y4775D01*
X1547Y4766D01*
X1570Y4763D01*
X1593Y4766D01*
X1615Y4775D01*
X1633Y4789D01*
X1647Y4807D01*
X1656Y4828D01*
X1659Y4851D01*
X1656Y4874D01*
X1647Y4896D01*
X1639Y4907D01*
Y5048D01*
X1649Y5062D01*
X1658Y5083D01*
X1661Y5105D01*
X1658Y5128D01*
X1649Y5148D01*
X1644Y5156D01*
X1650Y5168D01*
X1969D01*
X1979Y5158D01*
Y3956D01*
X1981Y3939D01*
X1988Y3923D01*
X1998Y3909D01*
X2045Y3863D01*
X2059Y3852D01*
X2074Y3845D01*
X2092Y3843D01*
X2117D01*
X2126Y3823D01*
X2146Y3797D01*
X2172Y3777D01*
X2198Y3766D01*
Y3752D01*
X2172Y3742D01*
X2146Y3722D01*
X2126Y3695D01*
X2117Y3675D01*
X2009D01*
X1992Y3673D01*
X1976Y3666D01*
X1962Y3656D01*
X1889Y3583D01*
X1876Y3587D01*
X1874Y3604D01*
X1865Y3624D01*
X1852Y3642D01*
X1834Y3656D01*
X1813Y3665D01*
X1791Y3668D01*
X1768Y3665D01*
X1748Y3656D01*
X1736Y3647D01*
X1629D01*
X1615Y3658D01*
X1593Y3667D01*
X1570Y3670D01*
X1547Y3667D01*
X1526Y3658D01*
X1508Y3644D01*
X1494Y3626D01*
X1485Y3604D01*
X1482Y3581D01*
X1485Y3558D01*
X1494Y3537D01*
X1508Y3519D01*
X1526Y3505D01*
X1547Y3496D01*
X1570Y3493D01*
X1593Y3496D01*
X1615Y3505D01*
X1629Y3515D01*
X1736D01*
X1748Y3507D01*
X1768Y3498D01*
X1785Y3496D01*
X1789Y3483D01*
X1700Y3393D01*
X1629D01*
X1615Y3404D01*
X1593Y3413D01*
X1570Y3416D01*
X1547Y3413D01*
X1526Y3404D01*
X1508Y3390D01*
X1494Y3372D01*
X1485Y3350D01*
X1482Y3327D01*
X1485Y3304D01*
X1494Y3283D01*
X1508Y3265D01*
X1526Y3251D01*
X1547Y3242D01*
X1570Y3239D01*
X1593Y3242D01*
X1615Y3251D01*
X1629Y3261D01*
X1727D01*
X1744Y3264D01*
X1760Y3270D01*
X1774Y3281D01*
X1884Y3391D01*
X1896Y3385D01*
X1895Y3378D01*
X1898Y3356D01*
X1907Y3335D01*
X1920Y3317D01*
X1938Y3304D01*
X1959Y3295D01*
X1981Y3292D01*
X2003Y3295D01*
X2021Y3302D01*
X2135D01*
X2146Y3289D01*
X2172Y3269D01*
X2198Y3258D01*
Y3244D01*
X2172Y3234D01*
X2146Y3214D01*
X2126Y3187D01*
X2113Y3157D01*
X2111Y3139D01*
X1658D01*
Y3161D01*
X1482D01*
Y2985D01*
X1658D01*
Y3007D01*
X2152D01*
X2169Y3010D01*
X2176Y3013D01*
X2198Y3004D01*
Y2990D01*
X2172Y2980D01*
X2146Y2960D01*
X2128Y2936D01*
X1107D01*
X1082Y2961D01*
Y4272D01*
X1080Y4289D01*
X1073Y4305D01*
X1063Y4318D01*
X778Y4603D01*
X776Y4620D01*
X767Y4642D01*
X753Y4660D01*
X735Y4674D01*
X713Y4683D01*
X690Y4686D01*
X667Y4683D01*
X646Y4674D01*
X628Y4660D01*
X614Y4642D01*
X605Y4620D01*
X602Y4597D01*
X605Y4574D01*
X614Y4553D01*
X628Y4535D01*
X646Y4521D01*
X667Y4512D01*
X685Y4509D01*
X950Y4244D01*
Y2934D01*
X952Y2917D01*
X959Y2901D01*
X969Y2887D01*
X1033Y2824D01*
X1047Y2813D01*
X1062Y2806D01*
X1080Y2804D01*
X2128D01*
X2146Y2781D01*
X2172Y2761D01*
X2198Y2750D01*
Y2736D01*
X2172Y2726D01*
X2146Y2706D01*
X2128Y2682D01*
X976D01*
X917Y2741D01*
Y3167D01*
X915Y3184D01*
X908Y3200D01*
X898Y3213D01*
X778Y3333D01*
X776Y3350D01*
X767Y3372D01*
X753Y3390D01*
X735Y3404D01*
X713Y3413D01*
X690Y3416D01*
X667Y3413D01*
X646Y3404D01*
X628Y3390D01*
X614Y3372D01*
X605Y3350D01*
X602Y3327D01*
X605Y3304D01*
X614Y3283D01*
X628Y3265D01*
X646Y3251D01*
X667Y3242D01*
X685Y3239D01*
X785Y3139D01*
Y3108D01*
X772Y3105D01*
X767Y3118D01*
X753Y3136D01*
X735Y3150D01*
X713Y3159D01*
X690Y3162D01*
X667Y3159D01*
X646Y3150D01*
X628Y3136D01*
X614Y3118D01*
X605Y3096D01*
X602Y3073D01*
X605Y3050D01*
X614Y3029D01*
X624Y3015D01*
Y2561D01*
X627Y2544D01*
X633Y2528D01*
X644Y2514D01*
X779Y2379D01*
X793Y2369D01*
X808Y2362D01*
X826Y2360D01*
X1818D01*
X1826Y2352D01*
Y2180D01*
X1757D01*
X1749Y2184D01*
X1727Y2187D01*
X1705Y2184D01*
X1684Y2175D01*
X1666Y2161D01*
X1653Y2143D01*
X1644Y2123D01*
X1641Y2100D01*
X1644Y2078D01*
X1653Y2057D01*
X1666Y2040D01*
X1684Y2026D01*
X1705Y2017D01*
X1727Y2014D01*
X1749Y2017D01*
X1770Y2026D01*
X1773Y2028D01*
X2138D01*
X2146Y2019D01*
X2172Y1999D01*
X2202Y1986D01*
X2235Y1982D01*
X2268Y1986D01*
X2298Y1999D01*
X2325Y2019D01*
X2345Y2045D01*
X2357Y2075D01*
X2362Y2108D01*
X2357Y2141D01*
X2345Y2171D01*
X2325Y2198D01*
X2298Y2218D01*
X2273Y2228D01*
Y2242D01*
X2298Y2253D01*
X2325Y2273D01*
X2345Y2299D01*
X2357Y2329D01*
X2360Y2350D01*
X2235D01*
X2110D01*
X2113Y2329D01*
X2126Y2299D01*
X2146Y2273D01*
X2172Y2253D01*
X2198Y2242D01*
Y2228D01*
X2172Y2218D01*
X2146Y2198D01*
X2133Y2180D01*
X1958D01*
Y2379D01*
X1956Y2396D01*
X1949Y2412D01*
X1939Y2425D01*
X1892Y2472D01*
X1878Y2483D01*
X1863Y2489D01*
X1845Y2492D01*
X853D01*
X756Y2588D01*
Y3015D01*
X767Y3029D01*
X772Y3042D01*
X785Y3039D01*
Y2714D01*
X787Y2697D01*
X794Y2681D01*
X804Y2667D01*
X902Y2570D01*
X916Y2559D01*
X931Y2552D01*
X949Y2550D01*
X2128D01*
X2146Y2527D01*
X2172Y2507D01*
X2198Y2496D01*
Y2482D01*
X2172Y2472D01*
X2146Y2452D01*
X2126Y2425D01*
X2113Y2395D01*
X2110Y2375D01*
X2235D01*
X2360D01*
X2357Y2395D01*
X2345Y2425D01*
X2325Y2452D01*
X2298Y2472D01*
X2273Y2482D01*
Y2496D01*
X2298Y2507D01*
X2325Y2527D01*
X2345Y2553D01*
X2357Y2583D01*
X2362Y2616D01*
X2357Y2649D01*
X2345Y2679D01*
X2325Y2706D01*
X2298Y2726D01*
X2273Y2736D01*
Y2750D01*
X2298Y2761D01*
X2325Y2781D01*
X2345Y2807D01*
X2357Y2837D01*
X2362Y2870D01*
X2357Y2903D01*
X2345Y2933D01*
X2325Y2960D01*
X2298Y2980D01*
X2273Y2990D01*
Y3004D01*
X2298Y3015D01*
X2325Y3035D01*
X2345Y3061D01*
X2357Y3091D01*
X2362Y3124D01*
X2357Y3157D01*
X2345Y3187D01*
X2325Y3214D01*
X2298Y3234D01*
X2273Y3244D01*
Y3258D01*
X2298Y3269D01*
X2325Y3289D01*
X2345Y3315D01*
X2357Y3345D01*
X2362Y3378D01*
X2357Y3411D01*
X2345Y3441D01*
X2325Y3468D01*
X2298Y3488D01*
X2273Y3498D01*
Y3512D01*
X2298Y3523D01*
X2325Y3543D01*
X2345Y3569D01*
X2357Y3599D01*
X2362Y3632D01*
X2357Y3665D01*
X2345Y3695D01*
X2325Y3722D01*
X2298Y3742D01*
X2273Y3752D01*
Y3766D01*
X2298Y3777D01*
X2325Y3797D01*
X2345Y3823D01*
X2357Y3853D01*
X2362Y3886D01*
X2357Y3919D01*
X2345Y3949D01*
X2325Y3976D01*
X2298Y3996D01*
X2273Y4006D01*
Y4020D01*
X2298Y4031D01*
X2325Y4051D01*
X2345Y4077D01*
X2357Y4107D01*
X2362Y4140D01*
X2357Y4173D01*
X2345Y4203D01*
X2325Y4230D01*
X2298Y4250D01*
X2273Y4260D01*
Y4274D01*
X2298Y4285D01*
X2325Y4305D01*
X2345Y4331D01*
X2357Y4361D01*
X2362Y4394D01*
X2357Y4427D01*
X2345Y4457D01*
X2325Y4484D01*
X2298Y4504D01*
X2273Y4514D01*
Y4528D01*
X2298Y4539D01*
X2325Y4559D01*
X2340Y4578D01*
X2453D01*
X2461Y4570D01*
Y2650D01*
X2464Y2633D01*
X2470Y2617D01*
X2481Y2604D01*
X2528Y2557D01*
X2541Y2546D01*
X2557Y2540D01*
X2574Y2538D01*
X4119D01*
X4136Y2540D01*
X4152Y2546D01*
X4165Y2557D01*
X4212Y2604D01*
X4223Y2617D01*
X4229Y2633D01*
X4232Y2650D01*
Y2836D01*
X4229Y2853D01*
X4223Y2869D01*
X4212Y2883D01*
X4165Y2930D01*
X4152Y2940D01*
X4136Y2947D01*
X4119Y2949D01*
X4026D01*
X4021Y2955D01*
X4000Y2971D01*
X3976Y2981D01*
X3950Y2984D01*
X3923Y2981D01*
X3899Y2971D01*
X3878Y2955D01*
X3862Y2934D01*
X3852Y2909D01*
X3848Y2883D01*
X3852Y2857D01*
X3862Y2832D01*
X3878Y2811D01*
X3899Y2795D01*
X3923Y2785D01*
X3950Y2782D01*
X3976Y2785D01*
X4000Y2795D01*
X4021Y2811D01*
X4026Y2817D01*
X4091D01*
X4100Y2809D01*
Y2678D01*
X4091Y2669D01*
X2601D01*
X2593Y2678D01*
Y4597D01*
X2591Y4614D01*
X2584Y4630D01*
X2574Y4644D01*
X2527Y4691D01*
X2513Y4701D01*
X2498Y4708D01*
X2480Y4710D01*
X2345D01*
X2345Y4711D01*
X2325Y4738D01*
X2298Y4758D01*
X2273Y4768D01*
Y4782D01*
X2298Y4793D01*
X2325Y4813D01*
X2343Y4836D01*
X2434D01*
X2438Y4835D01*
X2453Y4833D01*
X2639Y4646D01*
Y4115D01*
X2641Y4098D01*
X2648Y4082D01*
X2658Y4068D01*
X2862Y3865D01*
X2875Y3854D01*
X2891Y3848D01*
X2908Y3846D01*
X3102D01*
X3116Y3827D01*
X3137Y3811D01*
X3161Y3801D01*
X3188Y3798D01*
X3214Y3801D01*
X3238Y3811D01*
X3259Y3827D01*
X3275Y3848D01*
X3286Y3873D01*
X3289Y3899D01*
X3286Y3925D01*
X3275Y3950D01*
X3259Y3971D01*
X3238Y3987D01*
X3214Y3997D01*
X3188Y4000D01*
X3161Y3997D01*
X3137Y3987D01*
X3125Y3978D01*
X2936D01*
X2771Y4142D01*
Y4674D01*
X2769Y4691D01*
X2762Y4707D01*
X2752Y4720D01*
X2527Y4945D01*
X2513Y4956D01*
X2497Y4962D01*
X2480Y4964D01*
X2472D01*
X2468Y4966D01*
X2451Y4968D01*
X2343D01*
X2325Y4992D01*
X2298Y5012D01*
X2273Y5022D01*
Y5036D01*
X2298Y5047D01*
X2325Y5067D01*
X2345Y5093D01*
X2357Y5123D01*
X2362Y5156D01*
X2357Y5189D01*
X2345Y5219D01*
X2325Y5246D01*
X2298Y5266D01*
X2273Y5276D01*
Y5290D01*
X2298Y5301D01*
X2325Y5321D01*
X2345Y5347D01*
X2357Y5377D01*
X2362Y5410D01*
X2357Y5443D01*
X2345Y5473D01*
X2325Y5500D01*
X2298Y5520D01*
X2273Y5530D01*
Y5544D01*
X2298Y5555D01*
X2325Y5575D01*
X2345Y5601D01*
X2357Y5631D01*
X2362Y5664D01*
X2357Y5697D01*
X2345Y5727D01*
X2325Y5754D01*
X2298Y5774D01*
X2268Y5786D01*
X2235Y5791D01*
D02*
G37*
G36*
X1570Y4686D02*
X1547Y4683D01*
X1526Y4674D01*
X1512Y4663D01*
X1384D01*
X1367Y4661D01*
X1351Y4655D01*
X1338Y4644D01*
X1236Y4542D01*
X1226Y4529D01*
X1219Y4513D01*
X1217Y4496D01*
Y3138D01*
X1210Y3129D01*
X1201Y3108D01*
X1198Y3086D01*
X1201Y3064D01*
X1210Y3043D01*
X1224Y3025D01*
X1242Y3012D01*
X1262Y3003D01*
X1285Y3000D01*
X1307Y3003D01*
X1328Y3012D01*
X1346Y3025D01*
X1359Y3043D01*
X1368Y3064D01*
X1371Y3086D01*
X1368Y3108D01*
X1359Y3129D01*
X1349Y3143D01*
Y4468D01*
X1412Y4531D01*
X1512D01*
X1526Y4521D01*
X1547Y4512D01*
X1570Y4509D01*
X1593Y4512D01*
X1615Y4521D01*
X1633Y4535D01*
X1647Y4553D01*
X1656Y4574D01*
X1659Y4597D01*
X1656Y4620D01*
X1647Y4642D01*
X1633Y4660D01*
X1615Y4674D01*
X1593Y4683D01*
X1570Y4686D01*
D02*
G37*
G36*
X3010Y4772D02*
X2988Y4770D01*
X2967Y4761D01*
X2949Y4747D01*
X2935Y4729D01*
X2927Y4709D01*
X2924Y4686D01*
X2927Y4664D01*
X2935Y4643D01*
X2949Y4625D01*
X2967Y4612D01*
X2988Y4603D01*
X3010Y4600D01*
X3032Y4603D01*
X3053Y4612D01*
X3064Y4620D01*
X3266D01*
X3274Y4612D01*
Y4507D01*
X3087D01*
Y4473D01*
X2937D01*
X2926Y4481D01*
X2905Y4490D01*
X2883Y4493D01*
X2861Y4490D01*
X2840Y4481D01*
X2822Y4468D01*
X2808Y4450D01*
X2800Y4429D01*
X2797Y4407D01*
X2800Y4385D01*
X2808Y4364D01*
X2822Y4346D01*
X2840Y4332D01*
X2861Y4324D01*
X2883Y4321D01*
X2905Y4324D01*
X2926Y4332D01*
X2937Y4341D01*
X3087D01*
Y4306D01*
X3274D01*
Y4240D01*
X3266Y4232D01*
X3249D01*
X3238Y4241D01*
X3214Y4251D01*
X3188Y4254D01*
X3161Y4251D01*
X3137Y4241D01*
X3116Y4225D01*
X3100Y4204D01*
X3090Y4179D01*
X3086Y4153D01*
X3090Y4127D01*
X3100Y4102D01*
X3116Y4081D01*
X3137Y4065D01*
X3161Y4055D01*
X3188Y4052D01*
X3214Y4055D01*
X3238Y4065D01*
X3259Y4081D01*
X3274Y4100D01*
X3293D01*
X3310Y4103D01*
X3326Y4109D01*
X3340Y4120D01*
X3387Y4167D01*
X3397Y4180D01*
X3404Y4196D01*
X3406Y4213D01*
Y4639D01*
X3404Y4657D01*
X3397Y4672D01*
X3387Y4686D01*
X3340Y4733D01*
X3326Y4743D01*
X3310Y4750D01*
X3293Y4752D01*
X3064D01*
X3053Y4761D01*
X3032Y4770D01*
X3010Y4772D01*
D02*
G37*
G36*
X4775Y5791D02*
X4742Y5786D01*
X4712Y5774D01*
X4686Y5754D01*
X4666Y5727D01*
X4653Y5697D01*
X4649Y5664D01*
X4653Y5631D01*
X4666Y5601D01*
X4686Y5575D01*
X4712Y5555D01*
X4738Y5544D01*
Y5530D01*
X4712Y5520D01*
X4686Y5500D01*
X4666Y5473D01*
X4653Y5443D01*
X4649Y5410D01*
X4653Y5377D01*
X4666Y5347D01*
X4686Y5321D01*
X4712Y5301D01*
X4738Y5290D01*
Y5276D01*
X4712Y5266D01*
X4686Y5246D01*
X4666Y5219D01*
X4653Y5189D01*
X4649Y5156D01*
X4653Y5123D01*
X4666Y5093D01*
X4686Y5067D01*
X4712Y5047D01*
X4738Y5036D01*
Y5022D01*
X4712Y5012D01*
X4686Y4992D01*
X4666Y4965D01*
X4653Y4935D01*
X4649Y4902D01*
X4653Y4869D01*
X4666Y4839D01*
X4686Y4813D01*
X4712Y4793D01*
X4738Y4782D01*
Y4768D01*
X4712Y4758D01*
X4686Y4738D01*
X4666Y4711D01*
X4653Y4681D01*
X4649Y4648D01*
X4653Y4615D01*
X4666Y4585D01*
X4686Y4559D01*
X4712Y4539D01*
X4738Y4528D01*
Y4514D01*
X4712Y4504D01*
X4686Y4484D01*
X4666Y4457D01*
X4653Y4427D01*
X4649Y4394D01*
X4653Y4361D01*
X4666Y4331D01*
X4686Y4305D01*
X4712Y4285D01*
X4738Y4274D01*
Y4260D01*
X4712Y4250D01*
X4686Y4230D01*
X4666Y4203D01*
X4653Y4173D01*
X4649Y4140D01*
X4653Y4107D01*
X4666Y4077D01*
X4686Y4051D01*
X4712Y4031D01*
X4738Y4020D01*
Y4006D01*
X4712Y3996D01*
X4686Y3976D01*
X4666Y3949D01*
X4653Y3919D01*
X4649Y3886D01*
X4653Y3853D01*
X4666Y3823D01*
X4686Y3797D01*
X4712Y3777D01*
X4738Y3766D01*
Y3752D01*
X4712Y3742D01*
X4686Y3722D01*
X4666Y3695D01*
X4653Y3665D01*
X4649Y3632D01*
X4653Y3599D01*
X4666Y3569D01*
X4686Y3543D01*
X4712Y3523D01*
X4738Y3512D01*
Y3498D01*
X4712Y3488D01*
X4686Y3468D01*
X4666Y3441D01*
X4653Y3411D01*
X4649Y3378D01*
X4653Y3345D01*
X4666Y3315D01*
X4686Y3289D01*
X4712Y3269D01*
X4738Y3258D01*
Y3244D01*
X4712Y3234D01*
X4686Y3214D01*
X4666Y3187D01*
X4653Y3157D01*
X4649Y3124D01*
X4653Y3091D01*
X4666Y3061D01*
X4686Y3035D01*
X4712Y3015D01*
X4738Y3004D01*
Y2990D01*
X4712Y2980D01*
X4686Y2960D01*
X4666Y2933D01*
X4653Y2903D01*
X4649Y2870D01*
X4653Y2837D01*
X4666Y2807D01*
X4686Y2781D01*
X4712Y2761D01*
X4738Y2750D01*
Y2736D01*
X4712Y2726D01*
X4686Y2706D01*
X4666Y2679D01*
X4653Y2649D01*
X4649Y2616D01*
X4653Y2583D01*
X4666Y2553D01*
X4686Y2527D01*
X4712Y2507D01*
X4738Y2496D01*
Y2482D01*
X4712Y2472D01*
X4686Y2452D01*
X4666Y2425D01*
X4653Y2395D01*
X4650Y2375D01*
X4775D01*
X4900D01*
X4897Y2395D01*
X4885Y2425D01*
X4865Y2452D01*
X4838Y2472D01*
X4813Y2482D01*
Y2496D01*
X4838Y2507D01*
X4865Y2527D01*
X4885Y2553D01*
X4897Y2583D01*
X4902Y2616D01*
X4897Y2649D01*
X4885Y2679D01*
X4865Y2706D01*
X4838Y2726D01*
X4813Y2736D01*
Y2750D01*
X4838Y2761D01*
X4865Y2781D01*
X4885Y2807D01*
X4897Y2837D01*
X4902Y2870D01*
X4897Y2903D01*
X4885Y2933D01*
X4865Y2960D01*
X4838Y2980D01*
X4813Y2990D01*
Y3004D01*
X4838Y3015D01*
X4865Y3035D01*
X4883Y3058D01*
X5013D01*
X5024Y3050D01*
X5045Y3041D01*
X5067Y3038D01*
X5090Y3041D01*
X5110Y3050D01*
X5128Y3063D01*
X5142Y3081D01*
X5151Y3102D01*
X5153Y3124D01*
X5151Y3146D01*
X5142Y3167D01*
X5128Y3185D01*
X5110Y3199D01*
X5090Y3207D01*
X5067Y3210D01*
X5045Y3207D01*
X5024Y3199D01*
X5013Y3190D01*
X4883D01*
X4865Y3214D01*
X4838Y3234D01*
X4813Y3244D01*
Y3258D01*
X4838Y3269D01*
X4865Y3289D01*
X4885Y3315D01*
X4897Y3345D01*
X4902Y3378D01*
X4897Y3411D01*
X4885Y3441D01*
X4865Y3468D01*
X4838Y3488D01*
X4813Y3498D01*
Y3512D01*
X4838Y3523D01*
X4865Y3543D01*
X4885Y3569D01*
X4897Y3599D01*
X4902Y3632D01*
X4897Y3665D01*
X4885Y3695D01*
X4865Y3722D01*
X4838Y3742D01*
X4813Y3752D01*
Y3766D01*
X4838Y3777D01*
X4865Y3797D01*
X4883Y3820D01*
X5000D01*
X5012Y3812D01*
X5032Y3803D01*
X5055Y3800D01*
X5077Y3803D01*
X5098Y3812D01*
X5116Y3825D01*
X5129Y3843D01*
X5138Y3864D01*
X5141Y3886D01*
X5138Y3908D01*
X5129Y3929D01*
X5116Y3947D01*
X5098Y3961D01*
X5077Y3969D01*
X5055Y3972D01*
X5032Y3969D01*
X5012Y3961D01*
X5000Y3952D01*
X4883D01*
X4865Y3976D01*
X4838Y3996D01*
X4813Y4006D01*
Y4020D01*
X4838Y4031D01*
X4865Y4051D01*
X4885Y4077D01*
X4897Y4107D01*
X4902Y4140D01*
X4897Y4173D01*
X4885Y4203D01*
X4865Y4230D01*
X4838Y4250D01*
X4813Y4260D01*
Y4274D01*
X4838Y4285D01*
X4865Y4305D01*
X4883Y4328D01*
X4978D01*
X4986Y4329D01*
X4999Y4320D01*
X5020Y4311D01*
X5042Y4308D01*
X5064Y4311D01*
X5085Y4320D01*
X5103Y4333D01*
X5116Y4351D01*
X5125Y4372D01*
X5128Y4394D01*
X5125Y4416D01*
X5116Y4437D01*
X5103Y4455D01*
X5085Y4469D01*
X5064Y4477D01*
X5042Y4480D01*
X5020Y4477D01*
X4999Y4469D01*
X4986Y4459D01*
X4978Y4460D01*
X4883D01*
X4865Y4484D01*
X4838Y4504D01*
X4813Y4514D01*
Y4528D01*
X4838Y4539D01*
X4865Y4559D01*
X4885Y4585D01*
X4897Y4615D01*
X4902Y4648D01*
X4897Y4681D01*
X4885Y4711D01*
X4865Y4738D01*
X4838Y4758D01*
X4813Y4768D01*
Y4782D01*
X4838Y4793D01*
X4865Y4813D01*
X4885Y4839D01*
X4897Y4869D01*
X4902Y4902D01*
X4897Y4935D01*
X4885Y4965D01*
X4865Y4992D01*
X4838Y5012D01*
X4813Y5022D01*
Y5036D01*
X4838Y5047D01*
X4865Y5067D01*
X4885Y5093D01*
X4897Y5123D01*
X4902Y5156D01*
X4897Y5189D01*
X4885Y5219D01*
X4865Y5246D01*
X4838Y5266D01*
X4813Y5276D01*
Y5290D01*
X4838Y5301D01*
X4865Y5321D01*
X4885Y5347D01*
X4897Y5377D01*
X4902Y5410D01*
X4897Y5443D01*
X4885Y5473D01*
X4865Y5500D01*
X4838Y5520D01*
X4813Y5530D01*
Y5544D01*
X4838Y5555D01*
X4865Y5575D01*
X4885Y5601D01*
X4897Y5631D01*
X4902Y5664D01*
X4897Y5697D01*
X4885Y5727D01*
X4865Y5754D01*
X4838Y5774D01*
X4808Y5786D01*
X4775Y5791D01*
D02*
G37*
G36*
X1570Y4432D02*
X1547Y4429D01*
X1526Y4420D01*
X1508Y4406D01*
X1494Y4388D01*
X1485Y4366D01*
X1482Y4343D01*
X1485Y4320D01*
X1494Y4299D01*
X1508Y4281D01*
X1526Y4267D01*
X1547Y4258D01*
X1570Y4255D01*
X1593Y4258D01*
X1615Y4267D01*
X1629Y4277D01*
X1762D01*
X1773Y4269D01*
X1794Y4260D01*
X1816Y4257D01*
X1838Y4260D01*
X1859Y4269D01*
X1877Y4282D01*
X1891Y4300D01*
X1899Y4321D01*
X1902Y4343D01*
X1899Y4366D01*
X1891Y4386D01*
X1877Y4404D01*
X1859Y4418D01*
X1838Y4427D01*
X1816Y4430D01*
X1794Y4427D01*
X1773Y4418D01*
X1762Y4409D01*
X1629D01*
X1615Y4420D01*
X1593Y4429D01*
X1570Y4432D01*
D02*
G37*
G36*
X1583Y4176D02*
Y4102D01*
X1657D01*
X1656Y4112D01*
X1647Y4134D01*
X1633Y4152D01*
X1615Y4166D01*
X1593Y4175D01*
X1583Y4176D01*
D02*
G37*
G36*
X703D02*
Y4102D01*
X777D01*
X776Y4112D01*
X767Y4134D01*
X753Y4152D01*
X735Y4166D01*
X713Y4175D01*
X703Y4176D01*
D02*
G37*
G36*
X678D02*
X667Y4175D01*
X646Y4166D01*
X628Y4152D01*
X614Y4134D01*
X605Y4112D01*
X603Y4102D01*
X678D01*
Y4176D01*
D02*
G37*
G36*
X1558D02*
X1547Y4175D01*
X1526Y4166D01*
X1508Y4152D01*
X1494Y4134D01*
X1485Y4112D01*
X1483Y4102D01*
X1558D01*
Y4176D01*
D02*
G37*
G36*
X3950Y4254D02*
X3923Y4251D01*
X3899Y4241D01*
X3878Y4225D01*
X3862Y4204D01*
X3852Y4179D01*
X3848Y4153D01*
X3852Y4127D01*
X3862Y4102D01*
X3878Y4081D01*
X3899Y4065D01*
X3923Y4055D01*
X3950Y4052D01*
X3976Y4055D01*
X4000Y4065D01*
X4021Y4081D01*
X4037Y4102D01*
X4048Y4127D01*
X4051Y4153D01*
X4048Y4179D01*
X4037Y4204D01*
X4021Y4225D01*
X4000Y4241D01*
X3976Y4251D01*
X3950Y4254D01*
D02*
G37*
G36*
X1657Y4077D02*
X1583D01*
Y4002D01*
X1593Y4004D01*
X1615Y4013D01*
X1633Y4027D01*
X1647Y4045D01*
X1656Y4066D01*
X1657Y4077D01*
D02*
G37*
G36*
X777D02*
X703D01*
Y4002D01*
X713Y4004D01*
X735Y4013D01*
X753Y4027D01*
X767Y4045D01*
X776Y4066D01*
X777Y4077D01*
D02*
G37*
G36*
X678D02*
X603D01*
X605Y4066D01*
X614Y4045D01*
X628Y4027D01*
X646Y4013D01*
X667Y4004D01*
X678Y4002D01*
Y4077D01*
D02*
G37*
G36*
X1558D02*
X1483D01*
X1485Y4066D01*
X1494Y4045D01*
X1508Y4027D01*
X1526Y4013D01*
X1547Y4004D01*
X1558Y4002D01*
Y4077D01*
D02*
G37*
G36*
X1583Y3922D02*
Y3848D01*
X1657D01*
X1656Y3858D01*
X1647Y3880D01*
X1633Y3898D01*
X1615Y3912D01*
X1593Y3921D01*
X1583Y3922D01*
D02*
G37*
G36*
X703D02*
Y3848D01*
X777D01*
X776Y3858D01*
X767Y3880D01*
X753Y3898D01*
X735Y3912D01*
X713Y3921D01*
X703Y3922D01*
D02*
G37*
G36*
X1558D02*
X1547Y3921D01*
X1526Y3912D01*
X1508Y3898D01*
X1494Y3880D01*
X1485Y3858D01*
X1483Y3848D01*
X1558D01*
Y3922D01*
D02*
G37*
G36*
X678D02*
X667Y3921D01*
X646Y3912D01*
X628Y3898D01*
X614Y3880D01*
X605Y3858D01*
X603Y3848D01*
X678D01*
Y3922D01*
D02*
G37*
G36*
X3950Y4000D02*
X3923Y3997D01*
X3899Y3987D01*
X3878Y3971D01*
X3862Y3950D01*
X3852Y3925D01*
X3848Y3899D01*
X3852Y3873D01*
X3862Y3848D01*
X3878Y3827D01*
X3899Y3811D01*
X3923Y3801D01*
X3950Y3798D01*
X3976Y3801D01*
X4000Y3811D01*
X4021Y3827D01*
X4037Y3848D01*
X4048Y3873D01*
X4051Y3899D01*
X4048Y3925D01*
X4037Y3950D01*
X4021Y3971D01*
X4000Y3987D01*
X3976Y3997D01*
X3950Y4000D01*
D02*
G37*
G36*
X777Y3823D02*
X703D01*
Y3748D01*
X713Y3750D01*
X735Y3759D01*
X753Y3773D01*
X767Y3791D01*
X776Y3812D01*
X777Y3823D01*
D02*
G37*
G36*
X1657D02*
X1583D01*
Y3748D01*
X1593Y3750D01*
X1615Y3759D01*
X1633Y3773D01*
X1647Y3791D01*
X1656Y3812D01*
X1657Y3823D01*
D02*
G37*
G36*
X1558D02*
X1483D01*
X1485Y3812D01*
X1494Y3791D01*
X1508Y3773D01*
X1526Y3759D01*
X1547Y3750D01*
X1558Y3748D01*
Y3823D01*
D02*
G37*
G36*
X678D02*
X603D01*
X605Y3812D01*
X614Y3791D01*
X628Y3773D01*
X646Y3759D01*
X667Y3750D01*
X678Y3748D01*
Y3823D01*
D02*
G37*
G36*
X3950Y3746D02*
X3923Y3743D01*
X3899Y3733D01*
X3878Y3717D01*
X3862Y3696D01*
X3852Y3671D01*
X3848Y3645D01*
X3852Y3619D01*
X3862Y3594D01*
X3878Y3573D01*
X3899Y3557D01*
X3923Y3547D01*
X3950Y3544D01*
X3976Y3547D01*
X4000Y3557D01*
X4021Y3573D01*
X4037Y3594D01*
X4048Y3619D01*
X4051Y3645D01*
X4048Y3671D01*
X4037Y3696D01*
X4021Y3717D01*
X4000Y3733D01*
X3976Y3743D01*
X3950Y3746D01*
D02*
G37*
G36*
X3188D02*
X3161Y3743D01*
X3137Y3733D01*
X3116Y3717D01*
X3100Y3696D01*
X3090Y3671D01*
X3086Y3645D01*
X3090Y3619D01*
X3100Y3594D01*
X3116Y3573D01*
X3137Y3557D01*
X3161Y3547D01*
X3188Y3544D01*
X3214Y3547D01*
X3238Y3557D01*
X3259Y3573D01*
X3275Y3594D01*
X3286Y3619D01*
X3289Y3645D01*
X3286Y3671D01*
X3275Y3696D01*
X3259Y3717D01*
X3238Y3733D01*
X3214Y3743D01*
X3188Y3746D01*
D02*
G37*
G36*
X3950Y3492D02*
X3923Y3489D01*
X3899Y3479D01*
X3878Y3463D01*
X3862Y3442D01*
X3852Y3417D01*
X3848Y3391D01*
X3852Y3365D01*
X3862Y3340D01*
X3878Y3319D01*
X3899Y3303D01*
X3923Y3293D01*
X3950Y3290D01*
X3976Y3293D01*
X4000Y3303D01*
X4021Y3319D01*
X4027Y3327D01*
X4123D01*
X4132Y3319D01*
X4153Y3311D01*
X4175Y3308D01*
X4197Y3311D01*
X4218Y3319D01*
X4236Y3333D01*
X4250Y3351D01*
X4258Y3372D01*
X4261Y3394D01*
X4258Y3416D01*
X4250Y3437D01*
X4236Y3455D01*
X4218Y3469D01*
X4197Y3477D01*
X4175Y3480D01*
X4153Y3477D01*
X4132Y3469D01*
X4119Y3458D01*
X4024D01*
X4021Y3463D01*
X4000Y3479D01*
X3976Y3489D01*
X3950Y3492D01*
D02*
G37*
G36*
X3188D02*
X3161Y3489D01*
X3137Y3479D01*
X3116Y3463D01*
X3100Y3442D01*
X3090Y3417D01*
X3086Y3391D01*
X3090Y3365D01*
X3100Y3340D01*
X3116Y3319D01*
X3137Y3303D01*
X3161Y3293D01*
X3188Y3290D01*
X3214Y3293D01*
X3238Y3303D01*
X3259Y3319D01*
X3275Y3340D01*
X3286Y3365D01*
X3289Y3391D01*
X3286Y3417D01*
X3275Y3442D01*
X3259Y3463D01*
X3238Y3479D01*
X3214Y3489D01*
X3188Y3492D01*
D02*
G37*
G36*
X3950Y3238D02*
X3923Y3235D01*
X3899Y3225D01*
X3878Y3209D01*
X3862Y3188D01*
X3852Y3163D01*
X3848Y3137D01*
X3852Y3111D01*
X3862Y3086D01*
X3878Y3065D01*
X3899Y3049D01*
X3923Y3039D01*
X3950Y3036D01*
X3976Y3039D01*
X4000Y3049D01*
X4021Y3065D01*
X4026Y3071D01*
X4111D01*
X4123Y3062D01*
X4143Y3054D01*
X4166Y3051D01*
X4188Y3054D01*
X4209Y3062D01*
X4227Y3076D01*
X4240Y3094D01*
X4249Y3115D01*
X4252Y3137D01*
X4249Y3159D01*
X4240Y3180D01*
X4227Y3198D01*
X4209Y3211D01*
X4188Y3220D01*
X4166Y3223D01*
X4143Y3220D01*
X4123Y3211D01*
X4111Y3203D01*
X4026D01*
X4021Y3209D01*
X4000Y3225D01*
X3976Y3235D01*
X3950Y3238D01*
D02*
G37*
G36*
X3188D02*
X3161Y3235D01*
X3137Y3225D01*
X3116Y3209D01*
X3100Y3188D01*
X3090Y3163D01*
X3086Y3137D01*
X3090Y3111D01*
X3100Y3086D01*
X3116Y3065D01*
X3137Y3049D01*
X3161Y3039D01*
X3188Y3036D01*
X3214Y3039D01*
X3238Y3049D01*
X3259Y3065D01*
X3275Y3086D01*
X3286Y3111D01*
X3289Y3137D01*
X3286Y3163D01*
X3275Y3188D01*
X3259Y3209D01*
X3238Y3225D01*
X3214Y3235D01*
X3188Y3238D01*
D02*
G37*
G36*
X3200Y2982D02*
Y2896D01*
X3287D01*
X3286Y2909D01*
X3275Y2934D01*
X3259Y2955D01*
X3238Y2971D01*
X3214Y2981D01*
X3200Y2982D01*
D02*
G37*
G36*
X3175D02*
X3161Y2981D01*
X3137Y2971D01*
X3116Y2955D01*
X3100Y2934D01*
X3090Y2909D01*
X3088Y2896D01*
X3175D01*
Y2982D01*
D02*
G37*
G36*
X3287Y2870D02*
X3200D01*
Y2783D01*
X3214Y2785D01*
X3238Y2795D01*
X3259Y2811D01*
X3275Y2832D01*
X3286Y2857D01*
X3287Y2870D01*
D02*
G37*
G36*
X3175D02*
X3088D01*
X3090Y2857D01*
X3100Y2832D01*
X3116Y2811D01*
X3137Y2795D01*
X3161Y2785D01*
X3175Y2783D01*
Y2870D01*
D02*
G37*
G36*
X3950Y4508D02*
X3923Y4505D01*
X3899Y4495D01*
X3878Y4479D01*
X3862Y4458D01*
X3852Y4433D01*
X3848Y4407D01*
X3852Y4381D01*
X3862Y4356D01*
X3878Y4335D01*
X3899Y4319D01*
X3923Y4309D01*
X3950Y4306D01*
X3976Y4309D01*
X4000Y4319D01*
X4021Y4335D01*
X4026Y4341D01*
X4354D01*
X4392Y4303D01*
Y2155D01*
X4394Y2138D01*
X4401Y2122D01*
X4411Y2108D01*
X4458Y2062D01*
X4472Y2051D01*
X4487Y2044D01*
X4505Y2042D01*
X4650D01*
Y1983D01*
X4901D01*
Y2234D01*
X4826D01*
X4823Y2246D01*
X4838Y2253D01*
X4865Y2273D01*
X4885Y2299D01*
X4897Y2329D01*
X4900Y2350D01*
X4775D01*
X4650D01*
X4653Y2329D01*
X4666Y2299D01*
X4686Y2273D01*
X4712Y2253D01*
X4727Y2246D01*
X4725Y2234D01*
X4650D01*
Y2174D01*
X4532D01*
X4524Y2182D01*
Y4331D01*
X4521Y4348D01*
X4515Y4364D01*
X4504Y4377D01*
X4428Y4454D01*
X4414Y4464D01*
X4399Y4471D01*
X4381Y4473D01*
X4026D01*
X4021Y4479D01*
X4000Y4495D01*
X3976Y4505D01*
X3950Y4508D01*
D02*
G37*
G36*
X5500Y501D02*
X5461Y497D01*
X5423Y486D01*
X5388Y467D01*
X5358Y442D01*
X5333Y412D01*
X5314Y377D01*
X5302Y339D01*
X5299Y300D01*
X5302Y261D01*
X5314Y223D01*
X5333Y188D01*
X5358Y158D01*
X5388Y133D01*
X5423Y114D01*
X5461Y102D01*
X5500Y99D01*
X5539Y102D01*
X5577Y114D01*
X5612Y133D01*
X5642Y158D01*
X5667Y188D01*
X5686Y223D01*
X5697Y261D01*
X5701Y300D01*
X5697Y339D01*
X5686Y377D01*
X5667Y412D01*
X5642Y442D01*
X5612Y467D01*
X5577Y486D01*
X5539Y497D01*
X5500Y501D01*
D02*
G37*
G36*
X300D02*
X261Y497D01*
X223Y486D01*
X188Y467D01*
X158Y442D01*
X133Y412D01*
X114Y377D01*
X102Y339D01*
X99Y300D01*
X102Y261D01*
X114Y223D01*
X133Y188D01*
X158Y158D01*
X188Y133D01*
X223Y114D01*
X261Y102D01*
X300Y99D01*
X339Y102D01*
X377Y114D01*
X412Y133D01*
X442Y158D01*
X467Y188D01*
X486Y223D01*
X497Y261D01*
X501Y300D01*
X497Y339D01*
X486Y377D01*
X467Y412D01*
X442Y442D01*
X412Y467D01*
X377Y486D01*
X339Y497D01*
X300Y501D01*
D02*
G37*
%LPD*%
D10*
X1156Y6261D02*
X1308Y6414D01*
X2122D01*
X740Y6121D02*
X4508D01*
X738Y6123D02*
X740Y6121D01*
X508Y5740D02*
X1283D01*
X356Y5588D02*
X508Y5740D01*
X851Y5537D02*
X1435D01*
X508Y5194D02*
X851Y5537D01*
X1283Y3088D02*
X1285Y3086D01*
X1283Y3088D02*
Y4496D01*
X2132Y6414D02*
X3673D01*
X3719Y6460D02*
Y6824D01*
X3673Y6414D02*
X3719Y6460D01*
X508Y4390D02*
Y5194D01*
X1573Y4854D02*
Y5103D01*
X739Y5234D02*
X1996D01*
X1573Y5103D02*
X1575Y5105D01*
X1996Y5234D02*
X2045Y5186D01*
X690D02*
X739Y5234D01*
X4119Y2883D02*
X4166Y2836D01*
X3950Y2883D02*
X4119D01*
X4166Y2650D02*
Y2836D01*
X4119Y2603D02*
X4166Y2650D01*
X2574Y2603D02*
X4119D01*
X2239Y4644D02*
X2480D01*
X2527Y4597D01*
Y2650D02*
Y4597D01*
Y2650D02*
X2574Y2603D01*
X2235Y4648D02*
X2239Y4644D01*
X356Y3628D02*
Y5588D01*
X402Y3581D02*
X690D01*
X356Y3628D02*
X402Y3581D01*
X555Y4343D02*
X690D01*
X508Y4390D02*
X555Y4343D01*
X1570D02*
X1816D01*
X1570Y4851D02*
X1573Y4854D01*
X690Y4851D02*
Y5186D01*
X2045Y3956D02*
Y5186D01*
X1727Y3327D02*
X2009Y3609D01*
X1570Y3327D02*
X1727D01*
X2009Y3609D02*
X2212D01*
X1570Y3581D02*
X1791D01*
X2212Y3609D02*
X2235Y3632D01*
X1080Y2870D02*
X2235D01*
X1016Y2934D02*
X1080Y2870D01*
X1283Y4496D02*
X1384Y4597D01*
X1570D01*
X2045Y3956D02*
X2092Y3909D01*
X2212D01*
X2235Y3886D01*
X3010Y4686D02*
X3293D01*
X3340Y4639D01*
Y4213D02*
Y4639D01*
X3201Y4166D02*
X3293D01*
X3340Y4213D01*
X3188Y4153D02*
X3201Y4166D01*
X4775Y3124D02*
X5067D01*
X4775Y3886D02*
X5055D01*
X4775Y4394D02*
X4978D01*
X2883Y4407D02*
X3188D01*
X2705Y4115D02*
Y4674D01*
X2480Y4898D02*
X2705Y4674D01*
Y4115D02*
X2908Y3912D01*
X3175D02*
X3188Y3899D01*
X2908Y3912D02*
X3175D01*
X2235Y4902D02*
X2451D01*
X3719Y6824D02*
X4149D01*
X3719Y6824D02*
X3719Y6824D01*
X4174Y3392D02*
X4175Y3394D01*
X3950Y3391D02*
X3951Y3392D01*
X4174D01*
X3950Y3137D02*
X4166D01*
X4458Y2155D02*
Y4331D01*
X3950Y4407D02*
X4381D01*
X4458Y4331D01*
X4505Y2108D02*
X4775D01*
X4458Y2155D02*
X4505Y2108D01*
X1016Y2934D02*
Y4272D01*
X690Y4597D02*
X1016Y4272D01*
X2203Y3124D02*
X2235D01*
X1570Y3073D02*
X2152D01*
X2203Y3124D01*
X851Y2714D02*
X949Y2616D01*
X851Y2714D02*
Y3167D01*
X949Y2616D02*
X2235D01*
X690Y3327D02*
X851Y3167D01*
X1845Y2426D02*
X1892Y2379D01*
X826Y2426D02*
X1845D01*
X1892Y2104D02*
Y2379D01*
X690Y2561D02*
X826Y2426D01*
X690Y2561D02*
Y3073D01*
X2451Y4902D02*
X2455Y4898D01*
X2480D01*
D11*
X1981Y3378D02*
X2235D01*
X1892Y2104D02*
X2231D01*
X1731D02*
X1892D01*
X2231D02*
X2235Y2108D01*
X1727Y2100D02*
X1731Y2104D01*
D12*
X4775Y2108D02*
D03*
D13*
Y2362D02*
D03*
Y2616D02*
D03*
Y2870D02*
D03*
Y3124D02*
D03*
Y3378D02*
D03*
Y3632D02*
D03*
Y3886D02*
D03*
Y4140D02*
D03*
Y4394D02*
D03*
Y4648D02*
D03*
Y4902D02*
D03*
Y5156D02*
D03*
Y5410D02*
D03*
Y5664D02*
D03*
X2235Y2108D02*
D03*
Y2362D02*
D03*
Y2616D02*
D03*
Y2870D02*
D03*
Y3124D02*
D03*
Y3378D02*
D03*
Y3632D02*
D03*
Y3886D02*
D03*
Y4140D02*
D03*
Y4394D02*
D03*
Y4648D02*
D03*
Y4902D02*
D03*
Y5156D02*
D03*
Y5410D02*
D03*
Y5664D02*
D03*
D14*
X3519Y6824D02*
D03*
X3188Y4407D02*
D03*
D15*
X3719Y6824D02*
D03*
X3950Y2883D02*
D03*
Y3137D02*
D03*
Y3391D02*
D03*
Y3645D02*
D03*
Y3899D02*
D03*
Y4153D02*
D03*
Y4407D02*
D03*
X3188Y2883D02*
D03*
Y3137D02*
D03*
Y3391D02*
D03*
Y3645D02*
D03*
Y3899D02*
D03*
Y4153D02*
D03*
D16*
X1570Y3073D02*
D03*
D17*
Y3327D02*
D03*
Y3581D02*
D03*
Y3835D02*
D03*
Y4089D02*
D03*
Y4343D02*
D03*
Y4597D02*
D03*
Y4851D02*
D03*
X690D02*
D03*
Y4597D02*
D03*
Y4343D02*
D03*
Y4089D02*
D03*
Y3835D02*
D03*
Y3581D02*
D03*
Y3327D02*
D03*
Y3073D02*
D03*
D18*
X1156Y6261D02*
D03*
X4508Y6121D02*
D03*
X737D02*
D03*
X1283Y5740D02*
D03*
X2122Y6414D02*
D03*
X1285Y3086D02*
D03*
X1575Y5105D02*
D03*
X1816Y4343D02*
D03*
X1981Y3378D02*
D03*
X1791Y3581D02*
D03*
X3010Y4686D02*
D03*
X5067Y3124D02*
D03*
X5055Y3886D02*
D03*
X5042Y4394D02*
D03*
X2883Y4407D02*
D03*
X4149Y6824D02*
D03*
X4175Y3394D02*
D03*
X4166Y3137D02*
D03*
X1727Y2100D02*
D03*
D19*
X1435Y5537D02*
D03*
D20*
X300Y300D02*
D03*
X5500Y6900D02*
D03*
X300D02*
D03*
X5500Y300D02*
D03*
D21*
X0Y0D02*
X5800D01*
X0Y7200D02*
X5800D01*
Y0D02*
Y7200D01*
X0Y0D02*
Y7200D01*
M02*
