M48
;Layer_Color=9474304
;FILE_FORMAT=4:2
METRIC,LZ
;TYPE=PLATED
T1F00S00C0.74
T2F00S00C0.80
T3F00S00C0.90
T4F00S00C1.00
T5F00S00C1.02
T6F00S00C3.50
;TYPE=NON_PLATED
%
T01
X000686Y003086
Y00334
Y003594
Y003848
X001448
Y003594
Y00334
Y003086
Y004102
Y004356
Y00461
Y004864
X000686
Y00461
Y004356
Y004102
T02
X001727Y0021
X001905Y003365
X001715Y003823
X001194Y003099
X004166Y003137
X004175Y003394
X005067Y003124
X005055Y003886
X005042Y004394
X004521Y006096
X004149Y006824
X001829Y006375
X001156Y006272
X001118Y005753
X001321Y005537
X001575Y005105
X001727Y004343
X002883Y004407
X00301Y004686
X000584Y006109
T03
X003188Y002883
Y003137
Y003391
Y003645
Y003899
X00395
Y003645
Y003391
Y003137
Y002883
Y004153
Y004407
X003188
Y004153
T04
X003519Y006824
X003719
T05
X002235Y002108
Y002362
Y002616
Y00287
Y003124
Y003378
Y003632
Y003886
X004775
Y003632
Y003378
Y003124
Y00287
Y002616
Y002362
Y002108
Y00414
Y004394
Y004648
Y004902
Y005156
Y00541
Y005664
X002235
Y00541
Y005156
Y004902
Y004648
Y004394
Y00414
T06
X0003Y0003
X0055
Y0069
X0003
M30
